<svg id="Layer_1" data-name="Layer 1" xmlns="http://www.w3.org/2000/svg" viewBox="0 0 1177.6 386.28"><defs><style>.cls-1{fill:#dee4e8;}</style></defs><path class="cls-1" d="M25.83,522.86c27.52-120,54.84-239.16,82.25-358.73h5.68l635.49,0q165.24,0,330.49-.11a29.63,29.63,0,0,0,9.7-1.8c18.41-6.55,37.13-11.83,56.71-13.07,10-.62,20-.89,29.73,2.28,13.8,4.5,23.6,13,26.65,27.69,1.83,8.8.72,17.58-2.09,26.11-4.6,14-12.39,26.12-21.47,37.51a228.68,228.68,0,0,1-29.7,30.31c-1.11,1-2.15,2-3.56,3.3,1.32.75,2.24,1.35,3.22,1.82,12,5.81,17.55,17.34,16.56,31-.82,11.34-4.92,21.68-10.15,31.61-10.76,20.4-25.2,38-41.53,54.11-27.41,27-57.8,50.26-90.12,71-34.85,22.42-71.46,41.27-110.91,54.32-21.39,7.08-43.16,12.83-65.69,14.19-20.47,1.23-41.17,1.59-60.34-7.48-6.91-3.26-13.71-4.16-21.13-4.16q-366,.13-732,.07Zm944-163.58.48.75,3.06-1.26c10-4.12,19.88-8.54,30-12.3,18.9-7,38-13.47,58.37-14.53a42.37,42.37,0,0,1,12.78,1.34c5.2,1.37,7.09,4.92,5.27,10a32.08,32.08,0,0,1-6.16,10.7,187.08,187.08,0,0,1-18.28,17.67c-16.88,13.94-35.44,25.44-54.64,35.86-36.34,19.72-74.19,35.33-115.53,41-14.45,2-28.9,2.19-43.15-1.58-15.07-4-26.62-12.08-31.36-27.73-2.22-7.32-2.09-14.83-1-22.29,1.91-13,6.85-25,13-36.49,11.67-21.74,26.73-41,43.72-58.77,47.26-49.3,102.32-87.59,164.65-115.43,7.41-3.31,15-6.28,22.44-9.4a4.52,4.52,0,0,0-3.35-.16c-8.19,2.8-16.46,5.39-24.5,8.55-44.94,17.66-86.11,42-124.52,71.11-36,27.31-68.66,58.11-96.16,94.13-15.63,20.46-29.27,42.13-38.64,66.23-5.83,15-9.94,30.42-9.36,46.68.63,17.39,6.41,32.6,20.2,43.95,12.73,10.48,27.94,14.76,43.92,15.84C842.71,524.61,864,522,885,516.62c38.51-9.92,74.39-26,108.74-45.67a598.61,598.61,0,0,0,96-69c18-15.75,34.32-33.06,47.61-53,7.5-11.29,13.9-23.11,16.44-36.65,2.76-14.66-3.86-24.18-18.45-26.38-3.28-.5-6.62-.63-9.93-1-2.48-.26-5-.58-8.29-1,6.86-5.31,12.83-9.82,18.67-14.49,16.61-13.3,31.56-28.2,43.25-46.1,6.24-9.54,11.14-19.69,12.85-31.14,2-13.19-4.25-24.51-16.8-28.9a60.11,60.11,0,0,0-16.57-3.12c-15.63-.84-30.87,2.1-45.74,6.6a276.36,276.36,0,0,0-96.28,51.34c-15.79,13-30.07,27.38-41.16,44.67C972,268,969.1,273.57,966,279l.89.72c1.63-1,3.23-2.14,4.9-3.12,14.6-8.66,29-17.72,43.88-25.83,15.37-8.36,31.53-15.07,48.71-18.93,7-1.58,14.13-2.7,21.24-.79,5.76,1.55,7.73,5.1,6.73,10.89-1.12,6.4-4.15,12-7.74,17.17-16.31,23.64-37.35,42.55-60.75,58.75-15.08,10.43-30.18,20.77-44.18,32.64C976.34,353.31,973.14,356.34,969.86,359.28Zm-508-86.56a31.48,31.48,0,0,0,1.2-3.38q4.72-21.45,9.38-42.9c1.25-5.82-.44-9.53-5.54-12.58-4.72-2.83-10-3.7-15.35-3.71q-44.74-.09-89.49,0a41.62,41.62,0,0,0-17.89,4c-5.56,2.63-9.47,6.6-10.65,12.93-.89,4.74-2.1,9.42-3.14,14.13-11.52,52.13-22.92,104.28-34.69,156.36-1.45,6.42.06,12.27,8.28,15.19a45.11,45.11,0,0,0,14.66,2.36c28.49.21,57,.15,85.48.06a48.86,48.86,0,0,0,11.4-1.13c9.48-2.3,17.22-6.43,19.48-17.42,4.79-23.29,10.13-46.47,15.24-69.7,1-4.65,2-9.31,3.07-14.38H385.83c-1.13,5.12-2.25,10.2-3.55,16.06h36.17c-5.22,23.58-10.27,46.4-15.31,69.2H326.46q18.92-85.53,37.65-170.19h76.71l-9.89,45.11Zm-145.4-64H311c-7.5,0-15,.15-22.49-.07a10.08,10.08,0,0,0-8.28,3.44c-18,18.75-36.14,37.37-54.22,56Q157.65,338.66,89.32,409.2c-1.31,1.35-2.53,2.77-4.56,5,9.51,0,17.66-.16,25.79.07a10,10,0,0,0,8.23-3.58c16.61-17.54,33.4-34.91,50-52.44a9.16,9.16,0,0,1,7.36-3.16c24.66.12,49.32.06,74,.08,1.4,0,2.81.19,4.52.32-4.5,19.68-8.88,38.88-13.35,58.45h27.13C284.4,345.74,300.33,277.65,316.46,208.73ZM501.81,334h6.12c23.83,0,47.67,0,71.5,0,7.89,0,15.63-.9,22.65-5a18.22,18.22,0,0,0,9.11-12.47q9.67-44.37,19.56-88.68c1.7-7.68-.3-12.38-7.76-15a48.87,48.87,0,0,0-15.6-2.62c-34.66-.23-69.33-.13-104-.11-1.6,0-3.2.21-4.6.3-5,16.55-45,200.21-44.63,204.53h29.67C489.79,388.13,495.69,361.54,501.81,334Zm247.25-168a16.85,16.85,0,0,0-1.21,2.13c-1.68,4.7-3.44,9.37-5,14.12-12,37.46-16.17,76.09-16.59,115.19a507.49,507.49,0,0,0,3.51,62.82A515.07,515.07,0,0,0,746,442.85a43.76,43.76,0,0,0,1.84,4.29c5-33.08,19.78-60.85,37.4-87.41-.44-1.54-.78-3-1.26-4.39a737.35,737.35,0,0,1-25.26-93.87c-4.26-21.57-7.67-43.26-8.69-65.26C749.61,186.26,749.4,176.3,749.06,165.94Zm-37.2,232.18c-12.27,0-24.06,0-35.84,0s-23.76.09-36.15-.08c14-63,27.7-125.1,41.55-187.63H650.7c-15.08,68.11-30.13,136-45.29,204.46h109C713.58,409.31,712.78,404.13,711.86,398.12ZM340.56,471.5c-2.3,6.21-.64,12.4,4.41,15.46,8.83,5.36,24.94,3.72,31.39-7.32,4.53-7.74,2.12-14.92-6.25-18.15-1.85-.71-3.81-1.15-5.73-1.72-2.39-.71-4.84-1.25-7.15-2.16-2.67-1-3.16-2.81-1.75-5.12,2.23-3.64,12-5.06,15-2.1a6.09,6.09,0,0,1,1.35,2.58,23.92,23.92,0,0,1,.49,3.41h8.34c2.46-8.33-2.16-14.3-9.72-15.88a24,24,0,0,0-17.81,2.86A16.3,16.3,0,0,0,345.51,454a9.28,9.28,0,0,0,4,10.46,23.44,23.44,0,0,0,5.84,2.73c3.46,1.19,7.05,2,10.48,3.23s4,3.35,2.28,6.21c-2.07,3.32-8,5.21-13.11,4.18-4.21-.86-5.29-2.23-6.12-7.7a8.74,8.74,0,0,0-.64-1.64ZM478.39,489l9.34-18.74c.44,7,.8,12.74,1.18,18.71h8.25l19.31-35.72h-9.18l-10,18.72-1.15-.21V453.37H487.4l-9.85,19.7c-.5-7.3-.93-13.4-1.36-19.67H467c1,12.07,1.94,23.73,2.91,35.58Zm65.12,0c1-6,1.81-11.51,2.75-17,.56-3.28,1.49-6.5,1.87-9.8.52-4.59-1.75-8-6.12-9-5.8-1.31-11.59-1.14-17,1.66a14.09,14.09,0,0,0-7.75,10.42h8.22c4.43-4.63,8.09-5.89,11.77-4.22,2.09.95,2,2.34,1,4.37-4.59.83-9.36,1.51-14,2.59-5.17,1.2-9.06,4.15-10.75,9.41-1.93,6,.76,10.58,6.88,12,5,1.18,9.52-.47,14-2.27C537.25,490.34,540.73,489.05,543.51,489Zm67-14.66c.54-3.29,1.25-5.87,1.34-8.48.24-7.05-4-12.1-11-13.14-7.17-1.06-13.12,1.51-17.75,6.89-4.16,4.84-5.9,10.77-6,17.05-.1,4.75,1.73,8.89,6.09,11.27,10.15,5.53,24.65-1.37,26.29-11.37-6.74-1-6.77-.95-11.53,3-2.41,2-5.14,3.18-8.28,1.73-2.79-1.29-3.7-3.57-3.12-7Zm-297.95,0a70.83,70.83,0,0,0,1.32-8c.35-7.51-4.07-12.82-11.55-13.65-7.78-.87-13.92,2.32-18.43,8.61a27.47,27.47,0,0,0-4.78,15c-.22,4.51,1.25,8.57,5.26,11.2,9.32,6.1,25.18.09,27.12-11-4.3-.48-8.34-1.15-11.66,3.11a6.49,6.49,0,0,1-8.17,1.78c-2.77-1.32-3.48-3.7-3.13-7Zm-38.72-.12a51.61,51.61,0,0,0,1.27-5.59c1.25-11.5-6.12-18.06-17.49-15.65s-20.08,17.49-16.32,28.59a11.47,11.47,0,0,0,8,7.59A19.81,19.81,0,0,0,271,481.49a50.09,50.09,0,0,0,2.68-5.13h-9.19c-3.16,3.47-6.18,7.18-11.5,4.81-2.88-1.29-3.36-3.71-2.39-7Zm-50.1-33.06H190c-3.45,16-7.42,31.6-10.36,47.67h9.08c1.58-6.78,3.09-13.2,4.7-20.09h20.81c.72-3,1.32-5.54,2.07-8.72H195.26l2.43-10.62h24.15C222.5,446.55,223.06,444.16,223.76,441.14ZM419.25,466.6c.21-8.23-4.07-13.19-12.27-14.07a19,19,0,0,0-11.93,2.87c-6.91,4.13-9.58,10.82-10.76,18.3-1.62,10.32,5.74,17.53,16.13,16C411.27,488.05,418.29,479.74,419.25,466.6Zm25-5.81c.48-2.52.93-4.85,1.41-7.37l-5.35-.75c1-4,1-4,7.84-4.09.91-2.21,1.88-4.59,2.94-7.2-11.21-3.3-18.33-.14-20.5,11.28l-4.89.88-1.53,6.85,4.54,1.31c-2,9.14-3.91,18-5.9,27.11h8.94c2.15-9.36,4.21-18.38,6.29-27.44Zm4.76,1.12a8.09,8.09,0,0,1,0,1.36c-1,4.88-1.83,9.81-3.13,14.6-2.78,10.2,2.31,12.44,10.71,11.31a15.17,15.17,0,0,0,2.46-.83v-7l-4.57-.9c1.47-6.6,2.87-12.85,4.22-18.88l5.63-1c.51-2.33,1-4.53,1.54-7.07l-5-.73L463,441c-6.11,2.24-11.6,4.12-11.26,11.54l-4.38,1c-.51,2.17-1,4.23-1.53,6.47Zm-234.52,27h8.69c.37-1.14.8-2.2,1.06-3.31,1.34-5.64,2.41-11.36,4-16.94,1.87-6.58,4-7.63,10.73-5.92,1.37-2.28,2.8-4.63,4.62-7.65-2.63-1-4.72-2.34-6.85-2.38-4.7-.1-9.42.47-14.41.79C219.72,465.25,217.16,476.83,214.49,488.88Zm344.44-35.37-7.84,35.42h8.75c.47-1.62,1-3.17,1.36-4.75,1.24-5.17,2.22-10.41,3.71-15.51,2-6.71,3.84-7.65,10.71-6l4.57-7.72c-2.89-1-5.16-2.3-7.46-2.35C568.36,452.49,564,453.13,558.93,453.51Z" transform="translate(-25.83 -148.79)"/><path class="cls-1" d="M259.7,333.1H193.37c30.74-33.42,63.06-64.38,91.78-98.55C276.67,267.39,268.22,300.12,259.7,333.1Z" transform="translate(-25.83 -148.79)"/><path class="cls-1" d="M600.07,227.51l-19.71,89.15H505.65c6.58-29.71,13.14-59.29,19.76-89.15Z" transform="translate(-25.83 -148.79)"/><path class="cls-1" d="M535.71,474.62c-1.25,6.5-7.72,9.32-13.21,5.76C523.78,475.59,527.47,474,535.71,474.62Z" transform="translate(-25.83 -148.79)"/><path class="cls-1" d="M602.78,465.92H590c1.34-3.66,4.15-5.73,7.58-5.55C600.66,460.52,602.37,462.18,602.78,465.92Z" transform="translate(-25.83 -148.79)"/><path class="cls-1" d="M291.74,465.73c2-3.79,5.2-5.8,8.46-5.36,2.5.34,3.37,1.33,4.51,5.36Z" transform="translate(-25.83 -148.79)"/><path class="cls-1" d="M253.07,465.89c2.12-4,5.31-6,8.61-5.48,2.53.41,4.26,1.7,4.23,5.17C261.72,466.62,257.47,466.06,253.07,465.89Z" transform="translate(-25.83 -148.79)"/><path class="cls-1" d="M410,468a17.47,17.47,0,0,1-4.55,11c-2.66,2.77-6.4,3.61-9.06,2.23s-3.66-4.14-2.82-8.29c1-4.83,2.47-9.43,7.48-11.67C406.22,459,410,461.49,410,468Z" transform="translate(-25.83 -148.79)"/></svg>