<svg xmlns="http://www.w3.org/2000/svg" width="105.405" height="43.619" viewBox="0 0 105.405 43.619">
  <g id="agpl-logo" transform="translate(-88.519 -1761.542)">
    <g id="g2" transform="translate(90.37 1761.542)">
      <path id="path1" d="M110.925,1769.691l-7.241,31.59h69.969a6.223,6.223,0,0,1-4.69-2.238,4.729,4.729,0,0,1-.462-.787c-.083-.2-.162-.41-.241-.618a6.263,6.263,0,0,1-.254-2.179,15.884,15.884,0,0,1,2.9-7.494,40.413,40.413,0,0,1,8-8.724c.758-.629,1.541-1.25,2.361-1.854,1.014-.746,2.035-1.433,3.058-2.075a38.884,38.884,0,0,1,10.851-4.873,41.948,41.948,0,0,0-10.285,5.2c-.127.086-.252.174-.377.26a45.968,45.968,0,0,0-5.282,4.254c-4.984,4.686-7.618,9.542-6.421,12.386a3.556,3.556,0,0,0,.306.56c1.287,1.892,4.475,2.219,8.516,1.2.275-.069.55-.147.833-.228a32.834,32.834,0,0,0,4.072-1.5c.339-.15.682-.3,1.028-.468.035-.017.069-.033.1-.052,4.455-2.214,7.879-4.76,8.62-6.291a.952.952,0,0,0,.091-.839c-.529-1.072-4.229-.348-8.711,1.594-.36.156-.724.317-1.093.488.3-.278.612-.558.93-.833.508-.438,1.034-.865,1.594-1.288a31.792,31.792,0,0,1,2.635-1.8c4.084-3.081,6.149-6,5.718-7.078a.76.76,0,0,0-.52-.429c-.851-.271-2.405.052-4.294.826a32.1,32.1,0,0,0-5.159,2.765l-.247.163-.046.026-.872.579.5-.917a15.756,15.756,0,0,1,3.461-4.1,24.578,24.578,0,0,1,3.728-2.667c.514-.3,1.028-.581,1.542-.833s1.054-.486,1.568-.69a18.112,18.112,0,0,1,4.379-1.435c-.113,0-3.708.387-3.708.387H110.925Zm56.4.046a42.294,42.294,0,0,0,1.769,12.738q.365,1.352.8,2.745.272.859.559,1.691c-.112.165-.226.33-.332.494a17.491,17.491,0,0,0-2.96,7.247,44.618,44.618,0,0,1-1.574-7.878q-.131-1.208-.2-2.388a34.687,34.687,0,0,1,1.939-14.65Zm-34.108,4.053h7.813a2.686,2.686,0,0,1,1.529.371.87.87,0,0,1,.41.963l-.917,4.144h-2.713l.891-4.033h-6.792l-2.453,11.085-.885,4.014h6.785l.007-.026,1.36-6.141h-3.188l.306-1.386h5.9l-1.691,7.663a1.084,1.084,0,0,1-.117.306,1.689,1.689,0,0,1-.722.651,3.584,3.584,0,0,1-1.691.371h-7.689a2.686,2.686,0,0,1-1.529-.371.858.858,0,0,1-.41-.956l3.389-15.32a1.467,1.467,0,0,1,.833-.963c.017-.009.035-.011.052-.02a3.548,3.548,0,0,1,1.522-.351Zm12.061,0h9.687a2.682,2.682,0,0,1,1.522.371.866.866,0,0,1,.416.963l-1.809,8.171a1.464,1.464,0,0,1-.839.956,3.557,3.557,0,0,1-1.685.377H145.53l-1.36,6.135-.221,1.008H141.3l.2-.911,3.78-17.07Zm13.382,0h2.654l-3.005,13.577-.657,2.966H164c.067.487.144.965.228,1.438h-9.55l.755-3.409Zm-11.046,1.444-1.763,7.95h6.616l1.756-7.95ZM133.5,1794h.078a1.866,1.866,0,0,1,.794.156.942.942,0,0,1,.488.481,1.177,1.177,0,0,1,.065.7l-.02.1h-.761l.006-.091a.6.6,0,0,0-.072-.416.443.443,0,0,0-.033-.039.425.425,0,0,0-.065-.052.941.941,0,0,0-.488-.1,1.137,1.137,0,0,0-.644.15.573.573,0,0,0-.26.338.251.251,0,0,0,.052.241l.007.007a1.778,1.778,0,0,0,.644.228,4.388,4.388,0,0,1,.839.267.992.992,0,0,1,.481.462,1.012,1.012,0,0,1,.052.644,1.467,1.467,0,0,1-.345.644,1.745,1.745,0,0,1-.657.468,2.22,2.22,0,0,1-.846.169,2.11,2.11,0,0,1-.911-.169,1.049,1.049,0,0,1-.527-.54,1.325,1.325,0,0,1-.065-.787l.02-.091h.748l-.006.091a.821.821,0,0,0,.046.416.505.505,0,0,0,.26.247,1.2,1.2,0,0,0,.52.1,1.433,1.433,0,0,0,.494-.085.872.872,0,0,0,.345-.208.577.577,0,0,0,.15-.28.308.308,0,0,0-.02-.228.475.475,0,0,0-.241-.176l-.638-.189a2.86,2.86,0,0,1-.735-.26.911.911,0,0,1-.4-.429.925.925,0,0,1-.033-.566,1.377,1.377,0,0,1,.319-.618,1.6,1.6,0,0,1,.638-.436A2.24,2.24,0,0,1,133.5,1794Zm6.831.013c.041,0,.08,0,.124,0l.468.052.156.013-.228.579-.046.091-.358-.032a.412.412,0,0,0-.234.052l-.013.013a.229.229,0,0,0-.026.026.615.615,0,0,0-.1.247s-.014.056-.026.1h.559l-.143.644h-.546l-.553,2.479h-.755s.49-2.2.553-2.479h-.436l.143-.644h.429c.021-.089.052-.2.052-.2a1.59,1.59,0,0,1,.156-.462.983.983,0,0,1,.358-.351,1.09,1.09,0,0,1,.462-.13Zm1.8.033-.247,1.112h.488l-.143.644h-.488c-.04.179-.351,1.568-.351,1.568s-.026.167-.026.215c0,0,0,.005,0,.006s0,.006,0,.007h.006l.078.006.358-.026-.039.579.007.1-.514.059a.834.834,0,0,1-.462-.1.46.46,0,0,1-.208-.3.5.5,0,0,1-.013-.1,2.658,2.658,0,0,1,.078-.527s.273-1.225.332-1.483h-.358l.143-.644h.358c.033-.15.15-.664.15-.664l.605-.319.247-.13Zm-23.973.026h2.927l-.163.729h-2.14c-.033.148-.167.746-.215.963h1.854l-.163.729h-1.854c-.04.181-.4,1.789-.4,1.789h-.787Zm3.923,1.028a.755.755,0,0,1,.091,0,.885.885,0,0,1,.527.176l.1.072-.4.664-.111-.078a.475.475,0,0,0-.26-.078.406.406,0,0,0-.228.078.574.574,0,0,0-.2.215,2.055,2.055,0,0,0-.2.533l-.351,1.6h-.755l.7-3.123h.7s-.024.095-.033.13c.033-.025.068-.059.1-.078A.8.8,0,0,1,122.087,1795.1Zm2.238,0c.045,0,.09,0,.137,0a1.1,1.1,0,0,1,.956.442,1.207,1.207,0,0,1,.2.7,2.345,2.345,0,0,1-.059.5l-.059.228h-2.121c0,.044-.006.091-.006.13a.623.623,0,0,0,.1.384.489.489,0,0,0,.117.117.578.578,0,0,0,.319.085.752.752,0,0,0,.416-.124,1.1,1.1,0,0,0,.338-.371h.807l-.072.156a1.788,1.788,0,0,1-.638.729,1.725,1.725,0,0,1-.943.267,1.173,1.173,0,0,1-1.015-.442,1.421,1.421,0,0,1-.143-1.184,2.156,2.156,0,0,1,.664-1.2,1.681,1.681,0,0,1,1-.423Zm3.389,0c.045,0,.09,0,.137,0a1.1,1.1,0,0,1,.956.442,1.207,1.207,0,0,1,.2.7,2.291,2.291,0,0,1-.059.494l-.059.234h-2.121c0,.029,0,.055-.007.084,0,.011,0,.028,0,.039s0,0,0,.007c0,.031,0,.062.007.091a.562.562,0,0,0,.1.293c.011.015.021.032.033.046a.528.528,0,0,0,.4.156.746.746,0,0,0,.416-.124,1.1,1.1,0,0,0,.338-.371h.813l-.078.156a1.787,1.787,0,0,1-.638.729,1.724,1.724,0,0,1-.943.267A1.084,1.084,0,0,1,126,1797.19c0-.044,0-.091.007-.137a2.351,2.351,0,0,1,.052-.338,2.156,2.156,0,0,1,.657-1.2,1.7,1.7,0,0,1,1-.423Zm9.231,0c.046,0,.089,0,.137,0a1.155,1.155,0,0,1,.982.436,1.388,1.388,0,0,1,.156,1.171,2.4,2.4,0,0,1-.377.917,1.793,1.793,0,0,1-1.425.722,1.139,1.139,0,0,1-.982-.442,1.165,1.165,0,0,1-.208-.709,2.236,2.236,0,0,1,.059-.5,2.042,2.042,0,0,1,.755-1.255,1.756,1.756,0,0,1,.9-.338Zm11.43,0c.055,0,.106,0,.163,0a1.669,1.669,0,0,1,.624.091.69.69,0,0,1,.351.273.747.747,0,0,1,.1.4l-.078.475-.143.644a7.1,7.1,0,0,0-.156.833.838.838,0,0,0,.033.3l.052.169h-.768l-.033-.1a.926.926,0,0,1-.013-.156,2.317,2.317,0,0,1-.423.215,1.836,1.836,0,0,1-.6.1.985.985,0,0,1-.774-.273.691.691,0,0,1-.176-.481,1.049,1.049,0,0,1,.026-.221,1.083,1.083,0,0,1,.2-.436,1.219,1.219,0,0,1,.351-.312,1.563,1.563,0,0,1,.423-.169l.462-.078a5.061,5.061,0,0,0,.813-.15.388.388,0,0,1,.013-.046.415.415,0,0,0-.006-.286l-.013-.013a.31.31,0,0,0-.026-.026.645.645,0,0,0-.39-.091.865.865,0,0,0-.455.1.848.848,0,0,0-.28.351h-.787l.072-.156a1.662,1.662,0,0,1,.345-.533,1.437,1.437,0,0,1,.546-.319,2.166,2.166,0,0,1,.546-.1Zm3.3,0a.756.756,0,0,1,.091,0,.9.9,0,0,1,.533.176l.1.072-.4.664-.111-.078a.459.459,0,0,0-.254-.078.431.431,0,0,0-.234.078.577.577,0,0,0-.189.215,2.133,2.133,0,0,0-.2.533l-.358,1.6H149.9l.7-3.123h.7s-.018.095-.026.13c.033-.025.066-.059.1-.078A.768.768,0,0,1,151.674,1795.1Zm2.231,0c.045,0,.09,0,.137,0a1.1,1.1,0,0,1,.956.442,1.192,1.192,0,0,1,.2.7,2.378,2.378,0,0,1-.065.5l-.052.228h-2.121c0,.044-.013.091-.013.13a.637.637,0,0,0,.1.384c.011.015.027.033.039.046l.026.026a.543.543,0,0,0,.377.13.752.752,0,0,0,.416-.124,1.121,1.121,0,0,0,.338-.371h.813l-.078.156a1.8,1.8,0,0,1-.638.729,1.725,1.725,0,0,1-.943.267,1.161,1.161,0,0,1-1.008-.442,1.428,1.428,0,0,1-.15-1.184,2.149,2.149,0,0,1,.657-1.2A1.7,1.7,0,0,1,153.905,1795.1Zm-11.391.058h.774s.1,1.853.1,1.88c.031-.066.055-.122.059-.13l.852-1.75h.709s.065,1.831.065,1.841c.021-.037.969-1.841.969-1.841h.768l-1.691,3.123h-.7s-.067-1.693-.072-1.789l-.872,1.789h-.716Zm-18.176.592a.825.825,0,0,0-.494.2.959.959,0,0,0-.267.371h1.282c0-.023.006-.051.006-.072a.539.539,0,0,0-.059-.273.457.457,0,0,0-.429-.221h-.039Zm3.389,0a.825.825,0,0,0-.494.2.981.981,0,0,0-.267.371h1.282c0-.023.007-.051.007-.072a.518.518,0,0,0-.059-.273.525.525,0,0,0-.065-.084.482.482,0,0,0-.364-.137h-.039Zm26.217,0a.841.841,0,0,0-.514.2,1,1,0,0,0-.267.371h1.275c0-.023.007-.051.007-.072a.518.518,0,0,0-.059-.273.463.463,0,0,0-.429-.221h-.013Zm-17.044.013a.863.863,0,0,0-.481.234,1.409,1.409,0,0,0-.384.755,1.724,1.724,0,0,0-.046.371.64.64,0,0,0,.085.351.577.577,0,0,0,.052.065.505.505,0,0,0,.384.15.82.82,0,0,0,.572-.241,1.444,1.444,0,0,0,.384-.768.928.928,0,0,0-.039-.7.473.473,0,0,0-.429-.215.839.839,0,0,0-.1,0Zm11.755,1.138a4.878,4.878,0,0,1-.638.124,2.2,2.2,0,0,0-.416.091.464.464,0,0,0-.176.124.385.385,0,0,0-.091.169.458.458,0,0,0-.006.072s0,0,0,.007,0,.015,0,.02a.263.263,0,0,0,.006.032l.007.013a.2.2,0,0,0,.007.02c0,.005.01.014.013.02a.263.263,0,0,0,.02.026.41.41,0,0,0,.306.085,1.036,1.036,0,0,0,.468-.1.911.911,0,0,0,.345-.3,1.213,1.213,0,0,0,.156-.4Zm-39.736-5.216,17.459-18.026h2.851l-4.216,18.026h-2.345l1.2-5.189h-7.319l-4.974,5.189h-2.654m9.406-7.046h5.986l1.1-4.525q.669-2.693,1.287-4.488-1.236,1.549-3.271,3.677l-5.107,5.337" transform="translate(-103.684 -1768.356)" fill="#07193e"/>
      <path id="path2" d="M631.175,1795.511a7.038,7.038,0,0,1-5.3-2.541,5.439,5.439,0,0,1-.532-.909c-.1-.238-.185-.458-.271-.679l.97-.377c.083.214.166.427.253.635a4.39,4.39,0,0,0,.42.714,5.936,5.936,0,0,0,4.511,2.118l2.282,0a20.071,20.071,0,0,0,2.206-.311,28.628,28.628,0,0,0,4.279-1.215c1.158-.422,2.33-.917,3.483-1.472a49.279,49.279,0,0,0,7.871-4.764c.835-.614,1.671-1.269,2.486-1.948q1.093-.909,2.094-1.844a20.048,20.048,0,0,0,4-5.124c.769-1.546.9-2.784.37-3.486a2.186,2.186,0,0,0-1.657-.721l-1.376-.107,1.1-.829c3.95-2.964,6.185-6.472,5.434-8.532a2.209,2.209,0,0,0-1.411-1.3,4.509,4.509,0,0,0-1.142-.234l-1.213,0a18.587,18.587,0,0,0-6.244,1.763l-.458-.935a19.746,19.746,0,0,1,6.665-1.868h1.294a5.587,5.587,0,0,1,1.451.294,3.216,3.216,0,0,1,2.037,1.927c.856,2.349-1.1,5.893-4.9,9.022a2.666,2.666,0,0,1,1.246.893c.793,1.048.7,2.631-.268,4.577a20.806,20.806,0,0,1-4.212,5.416q-1.031.962-2.144,1.888c-.831.692-1.684,1.361-2.535,1.987a50.326,50.326,0,0,1-8.038,4.864c-1.183.569-2.386,1.077-3.577,1.511a29.681,29.681,0,0,1-4.436,1.259,20.86,20.86,0,0,1-2.366.329Z" transform="translate(-561.417 -1761.542)" fill="#07193e"/>
    </g>
    <g id="g3" transform="translate(88.519 1797.458)">
      <path id="path3" d="M0,7.494H1.553l.7-2.914H4.773L5.1,3.331H2.565l.421-1.874h2.7L6.006,0H1.749Z" transform="translate(0 0.208)" fill="#07193e"/>
      <path id="path4" d="M1.563,5.412,2.03,3.456c.246-1.06.764-2,1.744-2a1.294,1.294,0,0,1,.237.054L4.39.01C4.3.01,4.207,0,4.1,0A2.081,2.081,0,0,0,2.367,1.237H2.325c.06-.356.112-.693.152-1.028H1.139c-.077.433-.2,1.28-.377,2.044L0,5.412Z" transform="translate(5.402 2.29)" fill="#07193e"/>
      <path id="path5" d="M4.651,4.007a3.394,3.394,0,0,1-1.495.156,1.654,1.654,0,0,1-.993-.233,1.209,1.209,0,0,1-.133-.6c2.109.056,3.439-.431,3.506-1.763C5.586.562,4.851,0,3.783,0A3.38,3.38,0,0,0,.546,3.3c-.071,1.413.662,2.111,2.173,2.111A7.363,7.363,0,0,0,4.7,5.156Zm-.57-2.44c-.025.5-.637.525-1.842.514a1.266,1.266,0,0,1,1.295-.833c.356,0,.56.135.547.319Z" transform="translate(9.221 2.29)" fill="#07193e"/>
      <path id="path6" d="M4.636,4.007a3.388,3.388,0,0,1-1.493.156,1.65,1.65,0,0,1-.993-.233,1.211,1.211,0,0,1-.135-.6c2.111.056,3.439-.431,3.508-1.763C5.573.562,4.838,0,3.77,0A3.38,3.38,0,0,0,.531,3.3C.462,4.715,1.2,5.412,2.7,5.412a7.367,7.367,0,0,0,1.984-.256Zm-.568-2.44c-.025.5-.637.525-1.844.514a1.268,1.268,0,0,1,1.295-.833c.356,0,.562.135.55.319Z" transform="translate(14.755 2.29)" fill="#07193e"/>
      <path id="path7" d="M5.112,5.412a13.045,13.045,0,0,1,.335-2.377L6.116.208A5.969,5.969,0,0,0,4.392,0,3.8,3.8,0,0,0,.435,3.71a1.426,1.426,0,0,0,1.5,1.7A2.145,2.145,0,0,0,3.784,4.22h.023c-.042.431-.092.849-.119,1.193H5.112ZM4.044,2.44c-.3,1.324-.924,1.724-1.386,1.724-.431,0-.618-.306-.593-.751.05-1.005.845-2.163,1.849-2.163a1.615,1.615,0,0,0,.408-.058L4.044,2.44Z" transform="translate(22.314 2.29)" fill="#07193e"/>
      <path id="path8" d="M0,5.167a3.1,3.1,0,0,0,1.584.246c1.4.01,2.458-.6,2.521-1.726A1.672,1.672,0,0,0,2.991,2.2c-.41-.2-.616-.387-.606-.608.015-.3.294-.339.7-.339a5.511,5.511,0,0,1,1.045.1L4.555.219A2.931,2.931,0,0,0,3.222,0C1.863,0,.868.718.812,1.809A1.594,1.594,0,0,0,1.851,3.245c.475.244.637.431.625.7s-.252.223-.683.223A9.769,9.769,0,0,1,.431,4.051Z" transform="translate(28.444 2.29)" fill="#07193e"/>
      <path id="path9" d="M1.551,7.7,2.81,2.5H1.268L0,7.7Zm.722-5.829A1.1,1.1,0,0,0,3.3.687C3.327.179,3,0,2.513,0a.938.938,0,0,0-1,.82C1.493,1.316,1.821,1.874,2.273,1.874Z" transform="translate(35.2 0)" fill="#07193e"/>
      <path id="path10" d="M1.553,5.269,2.1,2.925c.285-1.193.9-1.611,1.405-1.611.4,0,.516.171.5.418a3.721,3.721,0,0,1-.083.6l-.7,2.939H4.775l.737-3.083a7.035,7.035,0,0,0,.131-.906C5.689.341,5.221,0,4.359,0A2.358,2.358,0,0,0,2.465,1.016H2.444L2.585.065H1.216c-.09.445-.2.985-.366,1.613L0,5.269Z" transform="translate(38.174 2.434)" fill="#07193e"/>
      <path id="path11" d="M0,7.494H1.553l.7-2.914H4.773L5.1,3.331H2.565l.421-1.874h2.7L6.006,0H1.749Z" transform="translate(46.41 0.208)" fill="#07193e"/>
      <path id="path12" d="M1.563,5.412,2.03,3.456c.246-1.06.764-2,1.744-2a1.294,1.294,0,0,1,.237.054L4.39.01C4.3.01,4.207,0,4.1,0A2.081,2.081,0,0,0,2.367,1.237H2.325c.06-.356.112-.693.152-1.028H1.139c-.075.433-.2,1.28-.377,2.044L0,5.412Z" transform="translate(51.812 2.29)" fill="#07193e"/>
      <path id="path13" d="M4.651,4.007a3.394,3.394,0,0,1-1.495.156,1.654,1.654,0,0,1-.993-.233,1.209,1.209,0,0,1-.133-.6c2.109.056,3.439-.431,3.506-1.763C5.586.562,4.851,0,3.783,0A3.38,3.38,0,0,0,.546,3.3C.475,4.715,1.21,5.412,2.72,5.412A7.353,7.353,0,0,0,4.7,5.156Zm-.57-2.44c-.025.5-.637.525-1.842.514a1.266,1.266,0,0,1,1.295-.833c.356,0,.56.135.547.319Z" transform="translate(55.631 2.29)" fill="#07193e"/>
      <path id="path14" d="M4.636,4.007a3.388,3.388,0,0,1-1.493.156,1.65,1.65,0,0,1-.993-.233,1.211,1.211,0,0,1-.135-.6c2.111.056,3.439-.431,3.508-1.763C5.573.562,4.838,0,3.77,0A3.38,3.38,0,0,0,.531,3.3C.462,4.715,1.2,5.412,2.7,5.412a7.367,7.367,0,0,0,1.984-.256Zm-.568-2.44c-.025.5-.637.525-1.844.514a1.268,1.268,0,0,1,1.295-.833c.356,0,.562.135.55.319Z" transform="translate(61.165 2.29)" fill="#07193e"/>
      <path id="path15" d="M5.274,0,4.689,2.365a1.937,1.937,0,0,0-.706-.075,3.626,3.626,0,0,0-3.5,3.556C.421,7.149,1.116,7.7,2.011,7.7A2.14,2.14,0,0,0,3.8,6.709h.021L3.7,7.7H5.111a18.667,18.667,0,0,1,.352-2.046L6.814,0H5.274ZM4.058,5.084c-.244,1.026-.818,1.37-1.272,1.37s-.7-.314-.672-.874c.052-1.037.764-2.04,1.69-2.04a1.558,1.558,0,0,1,.606.1L4.058,5.084Z" transform="translate(66.697 0)" fill="#07193e"/>
      <path id="path16" d="M2.648,5.412A3.294,3.294,0,0,0,5.954,2.173,1.965,1.965,0,0,0,3.822,0,3.38,3.38,0,0,0,.5,3.356C.44,4.692,1.3,5.412,2.648,5.412Zm.244-1.249A.73.73,0,0,1,2.1,3.322c.042-.839.56-2.073,1.453-2.073.616,0,.806.473.781.937-.046.916-.6,1.978-1.445,1.978Z" transform="translate(72.863 2.29)" fill="#07193e"/>
      <path id="path17" d="M1.5,5.412l.562-2.377c.235-1.06.822-1.786,1.349-1.786.379,0,.483.277.464.639a4.23,4.23,0,0,1-.1.606l-.7,2.919h1.5l.562-2.388c.258-1.093.812-1.776,1.328-1.776.356,0,.5.254.487.616a3.38,3.38,0,0,1-.108.652l-.674,2.9H7.686l.727-3.083A7.806,7.806,0,0,0,8.543,1.4C8.589.485,8.142,0,7.334,0A2.343,2.343,0,0,0,5.46.97C5.442.5,5.1,0,4.261,0A2.265,2.265,0,0,0,2.411,1.005H2.39l.139-.8H1.193C1.105.654,1,1.193.837,1.821L0,5.412Z" transform="translate(79.249 2.29)" fill="#07193e"/>
    </g>
  </g>
</svg>
