<svg xmlns="http://www.w3.org/2000/svg" width="42.034" height="45.939" viewBox="0 0 42.034 45.939"><defs><style>.a{fill:#00a9e5;}.b{fill:#353535;}.c{fill:#00bfb3;}.d{fill:#019b8f;}.e{fill:#f9b110;}.f{fill:#fed10a;}</style></defs><path class="a" d="M132.9,115.5h-12c.057.287.172.574.23.8a21.107,21.107,0,0,1,.747,4.307c.057.574.057,1.206.057,1.78s0,1.206-.057,1.78a21.106,21.106,0,0,1-.747,4.307c-.057.287-.172.574-.23.8h12a6.891,6.891,0,0,0,0-13.782Z" transform="translate(-101.318 -99.421)"/><path class="b" d="M107.358,124.171c.057-.574.057-1.206.057-1.78s0-1.206-.057-1.78a21.106,21.106,0,0,0-.747-4.307c-.057-.287-.172-.574-.23-.8H87.834a23.487,23.487,0,0,0,0,13.782h18.548c.057-.287.172-.574.23-.8A21.107,21.107,0,0,0,107.358,124.171Z" transform="translate(-86.8 -99.421)"/><path class="c" d="M128.072,143.5h-14.93a23.6,23.6,0,0,1-1.55,2.929,22.29,22.29,0,0,1-3.043,3.9c-.4.4-.8.747-1.206,1.148a22.846,22.846,0,0,1-2.642,2.01,22.725,22.725,0,0,0,12.633,3.79,23.018,23.018,0,0,0,19.122-10.221A11.712,11.712,0,0,0,128.072,143.5Z" transform="translate(-94.421 -111.343)"/><path class="d" d="M105.375,146.429a23.6,23.6,0,0,0,1.55-2.929H90.1a22.705,22.705,0,0,0,8.441,9.992,29.127,29.127,0,0,0,2.641-2.01c.4-.345.8-.747,1.206-1.148a22.635,22.635,0,0,0,2.986-3.9Z" transform="translate(-88.205 -111.343)"/><path class="e" d="M102.289,97.258c-.4-.4-.8-.747-1.206-1.148a22.847,22.847,0,0,0-2.641-2.01A23.475,23.475,0,0,0,90,104.092h16.825a23.6,23.6,0,0,0-1.55-2.929A18.059,18.059,0,0,0,102.289,97.258Z" transform="translate(-88.162 -90.31)"/><path class="f" d="M117.333,87.5A22.725,22.725,0,0,0,104.7,91.29a29.13,29.13,0,0,1,2.642,2.01c.4.345.8.747,1.206,1.148a22.29,22.29,0,0,1,3.043,3.9,23.605,23.605,0,0,1,1.55,2.929h14.93a11.712,11.712,0,0,0,8.384-3.56A23.018,23.018,0,0,0,117.333,87.5Z" transform="translate(-94.421 -87.5)"/></svg>