<svg xmlns="http://www.w3.org/2000/svg" width="45.923" height="45.923" viewBox="0 0 45.923 45.923"><defs><style>.a{fill:#fff;}.b{fill:#606;}</style></defs><path class="a" d="M46,25.927v7.016h.136A34.792,34.792,0,0,1,80.969,67.3h6.813A41.859,41.859,0,0,0,46,25.927Zm0,14.485v7.016h.136A20.246,20.246,0,0,1,66.393,67.3h6.813A27.3,27.3,0,0,0,46,40.412Zm45.9,8.737V35a60.59,60.59,0,0,0-6.043-7.2A59.1,59.1,0,0,0,77.936,21.4H62.907A49.439,49.439,0,0,1,91.9,49.149Z" transform="translate(-45.977 -21.4)"/><path class="b" d="M46.036,47.428H45.9V64.992A2.318,2.318,0,0,0,48.209,67.3H66.293A20.231,20.231,0,0,0,46.036,47.428Zm0-14.485H45.9v7.469A27.283,27.283,0,0,1,73.105,67.3h7.741a34.743,34.743,0,0,0-34.81-34.358ZM91.823,65.015V49.149A49.463,49.463,0,0,0,62.852,21.4H48.209A2.318,2.318,0,0,0,45.9,23.709v2.241A41.8,41.8,0,0,1,87.659,67.323h1.856a2.318,2.318,0,0,0,2.309-2.309ZM85.78,27.805A64.821,64.821,0,0,1,91.823,35V23.686A2.279,2.279,0,0,0,89.537,21.4H77.881A57.512,57.512,0,0,1,85.78,27.805Z" transform="translate(-45.9 -21.4)"/></svg>