<svg xmlns="http://www.w3.org/2000/svg" width="50.771" height="49.812" viewBox="0 0 50.771 49.812"><defs><style>.a,.b{fill:#0e698f;}.b{fill-rule:evenodd;}</style></defs><path class="a" d="M289.628,38.55a15.85,15.85,0,0,0-6.693.945c-.514.217-1.333.222-1.417.867.282.3.326.738.551,1.1a8.687,8.687,0,0,0,1.811,2.126c.711.537,1.443,1.11,2.205,1.575,1.355.826,2.868,1.3,4.174,2.126.769.488,1.533,1.1,2.284,1.653.371.272.62.7,1.1.867v-.079c-.253-.322-.319-.766-.551-1.1l-1.024-1.024a16.8,16.8,0,0,0-3.622-3.465c-1.077-.773-3.488-1.817-3.937-3.071l-.079-.079a17.361,17.361,0,0,0,2.363-.551c1.184-.318,2.242-.236,3.465-.552l1.654-.473V39.1c-.618-.634-1.059-1.474-1.733-2.047a50.482,50.482,0,0,0-5.669-4.253c-1.1-.694-2.458-1.145-3.622-1.733-.392-.2-1.081-.3-1.339-.63a16.691,16.691,0,0,1-1.417-2.678c-.988-1.9-1.959-3.982-2.835-5.985a32.281,32.281,0,0,0-1.732-3.937A34.779,34.779,0,0,0,260.176,4.923a16.041,16.041,0,0,0-4.41-1.417l-2.6-.158a13.841,13.841,0,0,1-1.575-1.181c-1.975-1.248-7.041-3.962-8.5-.394-.924,2.252,1.381,4.45,2.2,5.592a16.886,16.886,0,0,1,1.732,2.6c.272.592.319,1.185.551,1.811a41.587,41.587,0,0,0,1.811,4.646,16.425,16.425,0,0,0,1.26,2.126c.29.4.787.57.866,1.182a9.624,9.624,0,0,0-.787,2.6c-1.231,3.881-.767,8.7,1.024,11.577.549.882,1.843,2.773,3.622,2.047,1.556-.634,1.209-2.6,1.654-4.331.1-.393.039-.682.236-.945v.079l1.417,2.835a19.3,19.3,0,0,0,4.489,4.646c.818.618,1.462,1.686,2.52,2.047V40.2h-.079c-.2-.319-.526-.452-.787-.709a18.044,18.044,0,0,1-1.811-2.047,47.913,47.913,0,0,1-3.859-6.3c-.552-1.06-1.031-2.229-1.5-3.308-.179-.416-.177-1.044-.551-1.26a15.749,15.749,0,0,0-1.654,2.363,20.226,20.226,0,0,0-.945,5.2c-.138.049-.077.015-.158.079-1.1-.265-1.482-1.394-1.89-2.362a14.886,14.886,0,0,1-.316-9.214c.235-.73,1.3-3.028.867-3.7-.2-.673-.881-1.062-1.26-1.575a12.4,12.4,0,0,1-1.26-2.205c-.844-1.91-1.238-4.054-2.126-5.985A17.477,17.477,0,0,0,246.631,6.5a15.612,15.612,0,0,1-1.89-2.678c-.18-.39-.425-1.016-.158-1.417a.625.625,0,0,1,.473-.473c.457-.352,1.729.117,2.2.315a19.2,19.2,0,0,1,3.387,1.732c.514.341,1.033,1,1.654,1.182h.709c1.109.255,2.351.079,3.386.394a20.465,20.465,0,0,1,4.961,2.363,30.711,30.711,0,0,1,10.789,11.813c.408.783.585,1.531.945,2.363.726,1.676,1.64,3.4,2.362,5.04a23.549,23.549,0,0,0,2.441,4.646c.536.715,2.6,1.1,3.543,1.5a20.859,20.859,0,0,1,2.363.945c1.192.719,2.347,1.575,3.465,2.363.559.394,2.277,1.257,2.362,1.969Z" transform="translate(-242.873 0)"/><path class="b" d="M273.184,24.357a5.649,5.649,0,0,0-1.418.157v.079h.079a10.766,10.766,0,0,0,1.1,1.417l.788,1.654.078-.078a1.923,1.923,0,0,0,.709-1.732c-.2-.206-.225-.464-.394-.709C273.9,24.817,273.468,24.632,273.184,24.357Z" transform="translate(-261.629 -15.811)"/></svg>