<svg xmlns="http://www.w3.org/2000/svg" width="49.23" height="42.194" viewBox="0 0 49.23 42.194"><defs><style>.a{fill:#a41e11;}.b{fill:#d82c20;}.c{fill:#fff;}.d{fill:#7a0c00;}.e{fill:#ad2115;}</style></defs><path class="a" d="M218.623,310.094c-2.627,1.369-16.236,6.965-19.134,8.475s-4.507,1.5-6.8.4-16.771-6.944-19.38-8.191c-1.3-.623-1.99-1.149-1.99-1.646v-4.976s18.854-4.1,21.9-5.2,4.1-1.132,6.69-.183,18.079,3.744,20.639,4.681c0,0,0,4.444,0,4.905,0,.492-.59,1.032-1.928,1.728Z" transform="translate(-171.323 -277.559)"/><path class="b" d="M218.622,295.26c-2.627,1.369-16.236,6.965-19.134,8.475s-4.507,1.5-6.8.4-16.771-6.945-19.38-8.191-2.664-2.105-.1-3.109,16.966-6.655,20.01-7.747,4.1-1.132,6.69-.182,16.119,6.334,18.679,7.271,2.659,1.711.032,3.081Z" transform="translate(-171.322 -267.702)"/><path class="a" d="M218.623,282.054c-2.627,1.369-16.236,6.965-19.134,8.476s-4.507,1.5-6.8.4-16.771-6.944-19.38-8.191c-1.3-.623-1.99-1.149-1.99-1.645v-4.977s18.854-4.1,21.9-5.2,4.1-1.132,6.69-.183,18.079,3.743,20.639,4.681c0,0,0,4.444,0,4.906C220.551,280.818,219.96,281.358,218.623,282.054Z" transform="translate(-171.323 -257.634)"/><path class="b" d="M218.622,267.22c-2.627,1.369-16.236,6.965-19.134,8.476s-4.507,1.5-6.8.4-16.771-6.944-19.38-8.191-2.664-2.105-.1-3.109,16.966-6.654,20.01-7.746,4.1-1.132,6.69-.183,16.119,6.333,18.679,7.271,2.659,1.711.032,3.081Z" transform="translate(-171.322 -247.777)"/><path class="a" d="M218.623,252.976c-2.627,1.369-16.236,6.965-19.134,8.476s-4.507,1.5-6.8.4-16.771-6.944-19.38-8.191c-1.3-.623-1.99-1.149-1.99-1.645V247.04s18.854-4.1,21.9-5.2,4.1-1.132,6.69-.183,18.079,3.743,20.639,4.681c0,0,0,4.444,0,4.906,0,.491-.59,1.031-1.928,1.728Z" transform="translate(-171.323 -236.97)"/><path class="b" d="M218.622,238.141c-2.627,1.369-16.236,6.965-19.134,8.476s-4.507,1.5-6.8.4-16.771-6.944-19.38-8.191-2.664-2.105-.1-3.109,16.966-6.654,20.01-7.746,4.1-1.132,6.69-.182,16.119,6.333,18.679,7.271,2.659,1.711.032,3.08Z" transform="translate(-171.322 -227.113)"/><path class="c" d="M249.968,239.756l-4.266.443-.955,2.3-1.542-2.564-4.925-.443,3.675-1.325-1.1-2.034,3.441,1.346,3.244-1.062-.877,2.1Z" transform="translate(-218.903 -233.521)"/><path class="c" d="M240.2,274.773l-7.961-3.3,11.408-1.751Z" transform="translate(-214.611 -257.39)"/><ellipse class="c" cx="6.097" cy="2.363" rx="6.097" ry="2.363" transform="translate(8.456 7.513)"/><path class="d" d="M296.09,250.83l6.751,2.668-6.746,2.665Z" transform="translate(-259.984 -243.967)"/><path class="e" d="M270.28,253.785l7.469-2.955.006,5.333-.732.286Z" transform="translate(-241.643 -243.967)"/></svg>