<svg xmlns="http://www.w3.org/2000/svg" width="46.215" height="43.025" viewBox="0 0 46.215 43.025"><defs><style>.a{fill:#c83b51;}.b{fill:#696969;}</style></defs><path class="a" d="M51.317,19.006c-1.922,3.232-3.764,6.361-5.644,9.467a2.475,2.475,0,0,0-.336,2.461A4.6,4.6,0,0,1,42.076,37.2a4.7,4.7,0,0,1-5.786-3.9A4.8,4.8,0,0,1,40.562,27.9c.233-.033.471-.037.863-.066l4.232-7.1C43,18.094,41.411,15,41.762,11.166a10.884,10.884,0,0,1,3.261-6.972,11.072,11.072,0,0,1,13.815-1.45,10.755,10.755,0,0,1,4.5,12.508L59.475,14.2a7.332,7.332,0,0,0-1.56-6.7,6.691,6.691,0,0,0-4.189-2.191,6.814,6.814,0,0,0-7.443,4.823c-1.083,3.647.556,6.627,5.034,8.872Z" transform="translate(-29.658 -0.973)"/><path class="b" d="M110.984,45.394l4.092,7.218a11.141,11.141,0,0,1,10.238,19.58,10.958,10.958,0,0,1-14.294-1.423l3.154-2.639c3.97,2.571,7.443,2.45,10.021-.595a6.909,6.909,0,0,0-.111-9.014c-2.611-2.935-6.107-3.024-10.334-.207-1.753-3.111-3.537-6.2-5.235-9.329a3.184,3.184,0,0,0-2.495-1.892,4.439,4.439,0,0,1-3.63-4.3,4.685,4.685,0,0,1,8.337-3.174,4.409,4.409,0,0,1,.814,4.364c-.15.447-.345.879-.556,1.409Z" transform="translate(-83.835 -31.182)"/><path class="b" d="M30.387,129.273H22.094a11.364,11.364,0,0,1-5.47,7.587,11.06,11.06,0,0,1-7.417,1.321A11.269,11.269,0,0,1,.029,128.1a11.154,11.154,0,0,1,8.548-11.649c.353,1.281.709,2.575,1.062,3.853-4.688,2.392-6.311,5.406-5,9.175a6.83,6.83,0,0,0,8,4.431c3.638-.718,5.473-3.742,5.249-8.594,3.449,0,6.9-.036,10.35.018a3.779,3.779,0,0,0,3.4-1.306,4.471,4.471,0,0,1,6.545.068,4.7,4.7,0,1,1-6.795,6.5A16.224,16.224,0,0,1,30.387,129.273Z" transform="translate(-0.001 -95.529)"/></svg>