<svg xmlns="http://www.w3.org/2000/svg" viewBox="0 0 368.999 192.934"><defs><style>.cls-1{opacity:0.35;}.cls-12,.cls-15,.cls-16,.cls-17,.cls-2,.cls-5,.cls-6,.cls-7,.cls-8{opacity:0.5;}.cls-10,.cls-11,.cls-12,.cls-13,.cls-14,.cls-15,.cls-16,.cls-17,.cls-3,.cls-4,.cls-5,.cls-6,.cls-7,.cls-9{fill:none;stroke:#fff;stroke-miterlimit:10;}.cls-4{stroke-width:0.5px;}.cls-10,.cls-11,.cls-5,.cls-9{stroke-width:0.873px;}.cls-5{stroke-dasharray:2.619 2.182;}.cls-12,.cls-15,.cls-16,.cls-17,.cls-5,.cls-6,.cls-7,.cls-8{isolation:isolate;}.cls-6{stroke-width:0.715px;stroke-dasharray:2.144 1.786;}.cls-7{stroke-width:0.743px;stroke-dasharray:2.23 1.858;}.cls-10{stroke-dasharray:2.646 2.204;}.cls-11{stroke-dasharray:2.585 2.154;}.cls-12{stroke-width:0.828px;stroke-dasharray:2.484 2.07;}.cls-13{stroke-dasharray:2.984 2.487;}.cls-14{stroke-dasharray:2.773 2.311;}.cls-16{stroke-width:0.899px;}.cls-17{stroke-width:0.859px;}</style></defs><title>BG_Illustration</title><g id="Layer_2" data-name="Layer 2"><g id="Layer_1-2" data-name="Layer 1"><g id="BG_Illustration" data-name="BG Illustration" class="cls-1"><g id="Group_118" data-name="Group 118" class="cls-2"><path id="Path_56" data-name="Path 56" class="cls-3" d="M211.5,140.678l-52.726,29.078L79.687,126.139V29.652L132.411.571,211.5,44.188Z"/><path id="Path_58" data-name="Path 58" class="cls-3" d="M158.776,169.756V73.271L211.5,44.193,158.776,73.271,79.688,29.654"/><path id="Path_59" data-name="Path 59" class="cls-4" d="M84.681,41l69.1,38.11v79.3l-69.1-38.11Z"/><line id="Line_37" data-name="Line 37" class="cls-4" x1="106.25" y1="52.782" x2="106.25" y2="132.086"/><line id="Line_38" data-name="Line 38" class="cls-4" x1="153.783" y1="92.327" x2="106.25" y2="65.999"/><line id="Line_39" data-name="Line 39" class="cls-4" x1="153.783" y1="105.545" x2="106.25" y2="79.217"/><line id="Line_40" data-name="Line 40" class="cls-4" x1="153.783" y1="118.762" x2="106.25" y2="92.434"/><line id="Line_41" data-name="Line 41" class="cls-4" x1="153.783" y1="131.979" x2="106.25" y2="105.651"/><line id="Line_42" data-name="Line 42" class="cls-4" x1="153.783" y1="145.197" x2="106.25" y2="118.869"/><path id="Path_60" data-name="Path 60" class="cls-4" d="M166.723,151.031l38.8-22.487V62.916L166.723,85.4Z"/></g><path id="Path_62" data-name="Path 62" class="cls-5" d="M117.106,148.062l-76.18,43.33"/><path id="Path_63" data-name="Path 63" class="cls-6" d="M271.394,167.271l-44.483,25.3"/><path id="Path_64" data-name="Path 64" class="cls-7" d="M190.722,155.708l61.951,36.031"/><path id="Path_65" data-name="Path 65" class="cls-5" d="M237.7,36.385l28.182,17.229"/><g id="Path_66" data-name="Path 66" class="cls-8"><line class="cls-9" x1="362.563" y1="69.327" x2="361.42" y2="68.688"/><line class="cls-10" x1="359.496" y1="67.613" x2="305.418" y2="37.39"/><polyline class="cls-9" points="304.456 36.852 303.313 36.213 302.158 36.83"/><line class="cls-11" x1="300.258" y1="37.844" x2="213.418" y2="84.213"/><line class="cls-9" x1="212.468" y1="84.72" x2="211.313" y2="85.337"/></g><path id="Path_67" data-name="Path 67" class="cls-12" d="M79.648,192.571,31.786,166.344h-.868l-23.579,14.2"/><g id="Path_68" data-name="Path 68" class="cls-8"><line class="cls-3" x1="22.871" y1="84.641" x2="24.156" y2="83.867"/><line class="cls-13" x1="26.286" y1="82.584" x2="48.654" y2="69.113"/><polyline class="cls-3" points="49.719 68.471 51.004 67.698 52.307 68.441"/><line class="cls-14" x1="54.315" y1="69.585" x2="75.395" y2="81.606"/><line class="cls-3" x1="76.399" y1="82.178" x2="77.702" y2="82.921"/></g><circle id="Ellipse_11" data-name="Ellipse 11" class="cls-15" cx="4.092" cy="183.59" r="3.592"/><circle id="Ellipse_12" data-name="Ellipse 12" class="cls-15" cx="274.986" cy="165.477" r="3.592"/><ellipse id="Ellipse_13" data-name="Ellipse 13" class="cls-16" cx="364.957" cy="71.922" rx="3.592" ry="2.904"/><circle id="Ellipse_14" data-name="Ellipse 14" class="cls-15" cx="19.279" cy="87.681" r="3.592"/><ellipse id="Ellipse_15" data-name="Ellipse 15" class="cls-17" cx="234.106" cy="32.58" rx="3.592" ry="2.649"/></g></g></g></svg>