<svg id="search-icn" xmlns="http://www.w3.org/2000/svg" width="14.787" height="14.96" viewBox="0 0 14.787 14.96">
  <path id="Trazado_399" data-name="Trazado 399" d="M-2.643-45.114a6.418,6.418,0,0,0,1.4-4.008A6.48,6.48,0,0,0-7.722-55.6,6.48,6.48,0,0,0-14.2-49.122a6.48,6.48,0,0,0,6.478,6.478A6.418,6.418,0,0,0-3.887-43.9L-.881-40.9a.868.868,0,0,0,.6.259.838.838,0,0,0,.6-.259.855.855,0,0,0,0-1.227Zm-9.829-4.008a4.748,4.748,0,0,1,4.751-4.751,4.748,4.748,0,0,1,4.751,4.751,4.759,4.759,0,0,1-4.751,4.751A4.759,4.759,0,0,1-12.473-49.122Z" transform="translate(14.2 55.6)" fill="#afafaf"/>
</svg>
