<svg xmlns="http://www.w3.org/2000/svg" width="9.836" height="12.646" viewBox="0 0 9.836 12.646">
  <g id="trash-icn" transform="translate(2222 1227)">
    <path id="Trazado_359" data-name="Trazado 359" d="M-2212.473-1226.3h-2.5v-.395a.308.308,0,0,0-.308-.308h-3.6a.308.308,0,0,0-.308.308v.395h-2.5a.309.309,0,0,0-.309.309v.787a.309.309,0,0,0,.309.309h9.218a.309.309,0,0,0,.309-.309v-.787A.309.309,0,0,0-2212.473-1226.3Z"/>
    <path id="Trazado_360" data-name="Trazado 360" d="M-2221-1214.585a1.425,1.425,0,0,0,1.42,1.421h5.59a1.425,1.425,0,0,0,1.42-1.421V-1223H-2221Z" transform="translate(-0.297 -1.19)"/>
  </g>
</svg>
