<svg id="object-browser-icn" xmlns="http://www.w3.org/2000/svg" width="11.502" height="13.542" viewBox="0 0 11.502 13.542">
  <circle id="Elipse_55" data-name="Elipse 55" cx="1.667" cy="1.667" r="1.667" transform="translate(5.623 7.221) rotate(-10.901)"/>
  <rect id="Rectángulo_797" data-name="Rectángulo 797" width="3.561" height="3.019" rx="1.51" transform="translate(2.105 3.699)"/>
  <path id="Trazado_322" data-name="Trazado 322" d="M-4332.738-1202.411a.352.352,0,0,0-.609,0l-1.317,2.282a.352.352,0,0,0,.3.527h2.635a.352.352,0,0,0,.3-.527Z" transform="translate(4336.814 1211.141)"/>
  <path id="Trazado_323" data-name="Trazado 323" d="M-4328.313-1219.174a22.083,22.083,0,0,0-.027-2.536,1.472,1.472,0,0,0-.943-1.371,2.294,2.294,0,0,0-.266-.077,5.586,5.586,0,0,0-1.063-.095c-.62-.018-1.24.019-1.86.017-1.243-.005-2.486.017-3.729.022h-2.68a.913.913,0,0,0-.912.912v11.674a.913.913,0,0,0,.912.912h9.656a.912.912,0,0,0,.912-.912v-5.816C-4328.312-1217.353-4328.335-1218.266-4328.313-1219.174Zm-1.107,7.722a.788.788,0,0,1-.787.788h-7.849a.787.787,0,0,1-.787-.788v-10.025a.787.787,0,0,1,.787-.788h5.266v1.347a2,2,0,0,0,2,2h1.373Zm0-8.339h-1.373a1.128,1.128,0,0,1-1.126-1.127v-1.347h1.712a.788.788,0,0,1,.787.788Z" transform="translate(4339.792 1223.257)"/>
</svg>
