<svg xmlns="http://www.w3.org/2000/svg" width="28.141" height="23.33" viewBox="0 0 28.141 23.33">
  <g id="object-browser-folder-icn" transform="translate(3875.698 1391.955)">
    <g id="Grupo_1541" data-name="Grupo 1541" transform="translate(-3866.02 -1382.94)">
      <circle id="Elipse_57" data-name="Elipse 57" cx="1.268" cy="1.268" r="1.268" transform="translate(4.275 5.49) rotate(-10.901)"/>
      <rect id="Rectángulo_805" data-name="Rectángulo 805" width="2.707" height="2.295" rx="1.148" transform="translate(1.601 2.812)"/>
      <path id="Trazado_365" data-name="Trazado 365" d="M-3848.674-1356.694a.267.267,0,0,0-.463,0l-1,1.735a.267.267,0,0,0,.231.4h2a.267.267,0,0,0,.232-.4Z" transform="translate(3851.773 1363.331)"/>
      <path id="Trazado_366" data-name="Trazado 366" d="M-3845.066-1368.444a16.588,16.588,0,0,0-.021-1.927,1.119,1.119,0,0,0-.717-1.042,1.734,1.734,0,0,0-.2-.058,4.224,4.224,0,0,0-.807-.073c-.472-.014-.943.015-1.415.013-.945,0-1.889.013-2.834.017h-2.037a.694.694,0,0,0-.693.693v8.874a.694.694,0,0,0,.693.693h7.34a.694.694,0,0,0,.693-.693v-4.421C-3845.065-1367.059-3845.083-1367.754-3845.066-1368.444Zm-.842,5.871a.6.6,0,0,1-.6.6h-5.967a.6.6,0,0,1-.6-.6v-7.621a.6.6,0,0,1,.6-.6h4v1.024a1.52,1.52,0,0,0,1.518,1.518h1.043Zm0-6.34h-1.043a.857.857,0,0,1-.856-.856v-1.024h1.3a.6.6,0,0,1,.6.6Z" transform="translate(3853.792 1371.548)"/>
    </g>
    <path id="Trazado_367" data-name="Trazado 367" d="M-3864.516-1389.746c.726,0,1.5,2.076,2.283,2.076h9.68a1.041,1.041,0,0,1,1.038,1.038v.519h-19.748v-2.595h-.026a1.041,1.041,0,0,1,1.038-1.038h5.735m13.674,4.9a1.079,1.079,0,0,1,1.076,1.076l-1.1,11.862a1.079,1.079,0,0,1-1.076,1.076h-19.393a1.079,1.079,0,0,1-1.076-1.076l-1.076-11.862a1.079,1.079,0,0,1,1.076-1.076h21.571m-13.674-7.108h-5.735a3.25,3.25,0,0,0-3.247,3.247,2.22,2.22,0,0,0,.026.339v1.487a3.291,3.291,0,0,0-2.227,3.11c0,.067,0,.133.009.2l1.069,11.788a3.288,3.288,0,0,0,3.282,3.158h19.393a3.288,3.288,0,0,0,3.282-3.155l1.1-11.786c.006-.068.009-.136.009-.2a3.288,3.288,0,0,0-1.749-2.9,3.251,3.251,0,0,0-3.247-3.2h-8.959l-.124-.167a3.694,3.694,0,0,0-2.88-1.909Z" transform="translate(0 0)"/>
  </g>
</svg>
