<svg xmlns="http://www.w3.org/2000/svg" width="50.821" height="50.82" viewBox="0 0 50.821 50.82"><defs><style>.a{fill:#38bef2;}</style></defs><path class="a" d="M24.482,50.438l-9.431-9.431A3.931,3.931,0,0,1,9.814,35.77L.386,26.342a1.317,1.317,0,0,1,0-1.864l9.427-9.426a3.931,3.931,0,0,1,5.237-5.237L24.479.386a1.317,1.317,0,0,1,1.862,0L35.77,9.814a3.931,3.931,0,0,1,5.237,5.237l9.428,9.428a1.316,1.316,0,0,1,0,1.864L41.007,35.77a3.931,3.931,0,0,1-5.237,5.237l-9.429,9.428a1.32,1.32,0,0,1-1.86,0ZM16.965,35.869a3.871,3.871,0,0,1,.337,1.583,3.922,3.922,0,0,1-.44,1.8L25.411,47.8l8.549-8.549a3.907,3.907,0,0,1-.035-3.535L25.369,27.2Zm19.074,1.583a1.413,1.413,0,1,0,1.413-1.413A1.415,1.415,0,0,0,36.039,37.453Zm-24.084,0a1.413,1.413,0,1,0,1.413-1.413A1.415,1.415,0,0,0,11.955,37.453Zm3.3-3.444,7.077-7.3H17.079a3.981,3.981,0,0,1-1.34,1.836,3.923,3.923,0,0,1-4.742,0,3.982,3.982,0,0,1-1.34-1.836H4.32l7.248,7.248a3.9,3.9,0,0,1,3.691.049Zm23.994-.049L46.5,26.711H41.215a3.97,3.97,0,0,1-1.322,1.946,3.915,3.915,0,0,1-4.88,0,3.969,3.969,0,0,1-1.322-1.946H28.446L35.7,33.932a3.906,3.906,0,0,1,3.55.027Zm-3.214-8.384a1.413,1.413,0,1,0,1.413-1.413A1.415,1.415,0,0,0,36.039,25.575Zm-24.084-.165A1.413,1.413,0,1,0,13.368,24,1.415,1.415,0,0,0,11.955,25.411Zm27.831-3a3.956,3.956,0,0,1,1.346,1.779h5.449l-7.329-7.328a3.905,3.905,0,0,1-3.767-.089L28.292,24.19h5.48a3.929,3.929,0,0,1,6.014-1.779ZM15.773,22.3A3.977,3.977,0,0,1,17.1,24.19h5.235l-7.3-7.263a3.9,3.9,0,0,1-3.472-.066L4.24,24.19H9.633A3.976,3.976,0,0,1,10.964,22.3a3.919,3.919,0,0,1,4.808,0Zm1.089-10.733a3.9,3.9,0,0,1-.006,3.61l8.481,8.438,8.484-8.748a3.876,3.876,0,0,1-.3-1.5,3.919,3.919,0,0,1,.441-1.8L25.411,3.019Zm19.178,1.8a1.413,1.413,0,1,0,1.413-1.413A1.415,1.415,0,0,0,36.039,13.368Zm-24.084,0a1.413,1.413,0,1,0,1.413-1.413A1.415,1.415,0,0,0,11.955,13.368Z"/></svg>