<svg xmlns="http://www.w3.org/2000/svg" width="54.158" height="55.99" viewBox="0 0 54.158 55.99"><defs><style>.a{fill:#336791;}.b{fill:#fff;}</style></defs><g transform="translate(0)"><path d="M58.44,58.134c.366-3.046.256-3.493,2.525-3l.576.051a13.126,13.126,0,0,0,5.368-.9c2.886-1.339,4.6-3.575,1.752-2.988-6.492,1.339-6.939-.859-6.939-.859,6.855-10.172,9.721-23.084,7.248-26.244-6.747-8.621-18.425-4.544-18.621-4.438l-.062.011a23.142,23.142,0,0,0-4.331-.451A10.7,10.7,0,0,0,39.1,21.365S18.263,12.782,19.233,32.16c.206,4.122,5.909,31.192,12.71,23.016,2.486-2.99,4.888-5.518,4.888-5.518a6.306,6.306,0,0,0,4.119,1.052l.116-.1a4.515,4.515,0,0,0,.046,1.164c-1.752,1.958-1.237,2.3-4.74,3.022-3.544.73-1.462,2.031-.1,2.371a7.2,7.2,0,0,0,8.037-2.61l-.1.411c.687.55.641,3.952.738,6.383a22.973,22.973,0,0,0,.756,6.037c.5,1.337,1.08,4.782,5.684,3.8,3.848-.825,6.789-2.011,7.058-13.051" transform="translate(-16.722 -16.284)"/><path class="a" d="M68.657,51.292c-6.493,1.339-6.939-.859-6.939-.859,6.855-10.172,9.721-23.084,7.248-26.245-6.747-8.62-18.426-4.544-18.621-4.438l-.063.011a23.155,23.155,0,0,0-4.332-.451,10.7,10.7,0,0,0-6.857,2.053S18.259,12.781,19.228,32.158c.206,4.122,5.909,31.192,12.71,23.016,2.486-2.99,4.888-5.518,4.888-5.518a6.305,6.305,0,0,0,4.119,1.052l.116-.1a4.539,4.539,0,0,0,.047,1.164c-1.752,1.958-1.237,2.3-4.74,3.022-3.544.73-1.462,2.031-.1,2.371a7.2,7.2,0,0,0,8.037-2.61l-.1.411c.687.55,1.169,3.577,1.088,6.321s-.135,4.628.406,6.1,1.08,4.782,5.685,3.8c3.848-.825,5.842-2.961,6.119-6.525.2-2.534.642-2.159.67-4.425l.357-1.072c.412-3.435.065-4.543,2.436-4.028l.576.051a13.127,13.127,0,0,0,5.368-.9c2.886-1.339,4.6-3.575,1.752-2.988Z" transform="translate(-16.718 -16.283)"/><path class="b" d="M215.556,300.067c-3.874,0-5.1-3.067-5.6-4.321-.735-1.839-.9-8.715-.728-14.713a.8.8,0,1,1,1.608.045c-.187,6.68.077,12.729.613,14.07.831,2.078,2.092,3.9,5.654,3.132,3.436-.737,4.658-1.974,5.23-5.294.438-2.538,1.3-9.763,1.411-11.189a.8.8,0,0,1,1.6.12c-.112,1.487-.975,8.705-1.43,11.343-.679,3.94-2.435,5.727-6.479,6.594A9,9,0,0,1,215.556,300.067Z" transform="translate(-182.167 -244.077)"/><path class="b" d="M23.564,56.4a3.178,3.178,0,0,1-1.007-.167c-5.984-2-9.788-22.569-9.916-25.142-.276-5.516,1.148-9.421,4.231-11.606,6.092-4.316,16.324-.212,16.756-.036a.8.8,0,0,1-.608,1.489c-.1-.04-9.851-3.947-15.22-.139-2.6,1.846-3.8,5.281-3.551,10.211A72.17,72.17,0,0,0,17,43.655c1.95,6.388,4.161,10.417,6.067,11.052.292.1,1.182.394,2.47-1.154,2.475-2.977,4.748-5.354,4.771-5.378a.8.8,0,0,1,1.162,1.113c-.022.023-2.259,2.361-4.7,5.293A4.207,4.207,0,0,1,23.564,56.4Z" transform="translate(-10.98 -15.257)"/><path class="b" d="M266.067,45.406a.8.8,0,0,1-.666-1.254c6.916-10.263,9.354-22.651,7.282-25.3-6.181-7.9-16.656-4.547-17.6-4.22a.807.807,0,0,1-.122.049.837.837,0,0,1-1-.429.807.807,0,0,1,.318-1.021c.008,0,.079-.032.207-.075l0-.01a.814.814,0,0,1,.113-.026c1.989-.647,12.849-3.58,19.36,4.74,2.957,3.778-.684,17.5-7.214,27.19A.8.8,0,0,1,266.067,45.406Z" transform="translate(-221.112 -10.531)"/><path class="b" d="M154.77,54.077a6.087,6.087,0,0,1-2.911-.554,1.549,1.549,0,0,1-.823-1.254c-.176-3.085,1.476-3.7,2.392-3.96-.117-.167-.27-.359-.428-.556a11.146,11.146,0,0,1-1.767-2.848c-.083-.2-.349-.678-.656-1.228-1.675-3-5.159-9.253-2.907-12.472,1.035-1.479,3.075-2.072,6.074-1.768-.962-2.781-5.254-11.079-15.11-11.24a9.667,9.667,0,0,0-7.333,2.747c-4.16,4.2-4.009,11.809-4.007,11.886a.8.8,0,1,1-1.608.042c-.009-.34-.166-8.376,4.472-13.06a11.216,11.216,0,0,1,8.5-3.224c12.348.2,16.752,11.937,16.9,13.511a.9.9,0,0,1-.673,1.066l-.29.007c-2.026-.324-4.644-.422-5.608.956-1.675,2.394,1.6,8.261,2.994,10.766.359.644.618,1.109.738,1.4a9.614,9.614,0,0,0,1.536,2.457,4.263,4.263,0,0,1,.934,1.547c.07.114.964,1.33,6,.29,1.324-.273,2.121-.032,2.368.716.478,1.446-2.158,3.112-3.619,3.79A13.561,13.561,0,0,1,154.77,54.077Zm-.442-4.363c-.134.051-.254.085-.335.108-.752.211-1.462.41-1.351,2.356.471.5,4.451.461,6.622-.546a8.893,8.893,0,0,0,2.29-1.479l-.036.007c-3.3.682-5.646.589-6.959-.278A2.791,2.791,0,0,1,154.329,49.714Z" transform="translate(-109.461 -14.444)"/><path class="b" d="M139.278,262.531h0a2.831,2.831,0,0,1,1.112.265,3.262,3.262,0,0,1,1.769,2.122,2.731,2.731,0,0,1-.34,2.386,7.486,7.486,0,0,1-6.318,3.257,10.623,10.623,0,0,1-2.569-.333c-.255-.064-2.5-.665-2.466-2.1.027-1.311,1.9-1.7,2.6-1.841,2.475-.51,2.635-.713,3.4-1.689.236-.3.515-.653.9-1.082A2.562,2.562,0,0,1,139.278,262.531Zm-3.776,6.421a5.861,5.861,0,0,0,5.008-2.583,1.2,1.2,0,0,0,.1-1.008,1.7,1.7,0,0,0-.838-1.078,1.409,1.409,0,0,0-.5-.142,1.083,1.083,0,0,0-.707.451c-.357.4-.616.728-.834,1.005-.982,1.247-1.432,1.67-4.344,2.269a5.24,5.24,0,0,0-1.143.341,3.563,3.563,0,0,0,1.073.462A9.018,9.018,0,0,0,135.5,268.952Z" transform="translate(-113.626 -228.644)"/><path class="b" d="M132.244,138.616a.8.8,0,0,1-.794-.683q-.025-.16-.035-.322a7.337,7.337,0,0,1-5.1-2.314,8.375,8.375,0,0,1-2.207-7.01,32.793,32.793,0,0,0,.167-6.623c-.022-.374-.038-.657-.037-.828.009-1.295,3.8-2.951,6-3.179,2.728-.282,4.527.934,5.066,3.426,1.439,6.653.113,9.6-.855,11.748-.177.393-.345.765-.483,1.137l-.12.322a7.966,7.966,0,0,0-.812,3.4.805.805,0,0,1-.8.927Zm-6.389-17.546c.006.135.016.3.028.5a34.259,34.259,0,0,1-.179,6.941,6.775,6.775,0,0,0,1.776,5.674A5.726,5.726,0,0,0,131.588,136a20.977,20.977,0,0,1,.757-2.276l.119-.32c.151-.405.332-.81.525-1.238.925-2.055,2.076-4.612.749-10.748a2.44,2.44,0,0,0-1.885-2.106C129.636,118.809,126.526,120.476,125.855,121.07Z" transform="translate(-108.016 -102.435)"/><path class="b" d="M172.5,139.438c-.037.263.482.965,1.159,1.059a1.248,1.248,0,0,0,1.291-.718c.037-.263-.482-.553-1.159-.647s-1.255.043-1.29.306Z" transform="translate(-150.237 -121.147)"/><path class="b" d="M171.569,137.025a3.3,3.3,0,0,1,.454.032,2.766,2.766,0,0,1,.941.292,1.1,1.1,0,0,1,.318.252.515.515,0,0,1,.129.406,1.077,1.077,0,0,1-.458.633,1.6,1.6,0,0,1-.943.326,1.4,1.4,0,0,1-.192-.013,1.6,1.6,0,0,1-.676-.269,2,2,0,0,1-.472-.447.985.985,0,0,1-.239-.646l.033-.231h.068a.571.571,0,0,1,.066-.07.845.845,0,0,1,.271-.158A2.044,2.044,0,0,1,171.569,137.025Zm1.3.923a.684.684,0,0,0-.247-.17,2.4,2.4,0,0,0-.677-.19,2.758,2.758,0,0,0-.38-.027,1.71,1.71,0,0,0-.447.052.51.51,0,0,0-.156.066,1.019,1.019,0,0,0,.261.384,1.229,1.229,0,0,0,.663.358.859.859,0,0,0,.119.008,1.07,1.07,0,0,0,.608-.209A.822.822,0,0,0,172.872,137.948Z" transform="translate(-148.428 -119.338)"/><path class="b" d="M315.4,135.281c.037.263-.482.965-1.159,1.059a1.249,1.249,0,0,1-1.291-.718c-.036-.263.483-.553,1.159-.647s1.254.043,1.291.306Z" transform="translate(-272.552 -117.527)"/><path class="b" d="M313.619,133.907a1.913,1.913,0,0,1,.655.1c.265.1.338.246.353.352h0a1.054,1.054,0,0,1-.347.7,1.639,1.639,0,0,1-.926.507,1.264,1.264,0,0,1-.174.012,1.464,1.464,0,0,1-.863-.3.963.963,0,0,1-.406-.544h0c-.025-.186.11-.371.38-.522a2.63,2.63,0,0,1,.893-.276A3.167,3.167,0,0,1,313.619,133.907Zm.742.488c-.006-.046-.076-.1-.181-.138a1.674,1.674,0,0,0-.56-.082,2.9,2.9,0,0,0-.4.028c-.706.1-1.06.379-1.045.5a.75.75,0,0,0,.3.366,1.208,1.208,0,0,0,.7.247,1,1,0,0,0,.137-.009,1.372,1.372,0,0,0,.768-.426.851.851,0,0,0,.276-.482Z" transform="translate(-271.648 -116.623)"/><path class="b" d="M334.068,134.988a.8.8,0,0,1-.668-1.252c1.572-2.347,1.283-4.749,1-7.072a20.213,20.213,0,0,1-.211-3.018,21.018,21.018,0,0,1,.287-2.669,13.532,13.532,0,0,0,.229-2.93.8.8,0,0,1,1.607-.087,15.019,15.019,0,0,1-.245,3.261,19.713,19.713,0,0,0-.269,2.476,18.747,18.747,0,0,0,.2,2.774c.3,2.492.639,5.316-1.265,8.159A.8.8,0,0,1,334.068,134.988Z" transform="translate(-290.247 -102.072)"/><path class="b" transform="translate(0 0)"/></g></svg>