<?xml version="1.0" standalone="no"?>
<!DOCTYPE svg PUBLIC "-//W3C//DTD SVG 20010904//EN"
 "http://www.w3.org/TR/2001/REC-SVG-20010904/DTD/svg10.dtd">
<svg version="1.0" xmlns="http://www.w3.org/2000/svg"
 width="1344.000000pt" height="1344.000000pt" viewBox="0 0 1344.000000 1344.000000"
 preserveAspectRatio="xMidYMid meet">
<metadata>
Created by potrace 1.11, written by Peter Selinger 2001-2013
</metadata>
<g transform="translate(0.000000,1344.000000) scale(0.100000,-0.100000)"
fill="#000000" stroke="none">
<path d="M7171 13408 c-35 -4 -87 -12 -117 -18 -30 -6 -56 -11 -59 -10 -3 0
-19 -7 -35 -15 -17 -9 -30 -13 -30 -11 0 12 -265 -115 -280 -133 -3 -3 -24
-19 -48 -34 -71 -46 -214 -196 -274 -287 -93 -144 -150 -293 -176 -460 -17
-119 -2 -363 29 -450 1 -3 3 -9 5 -15 42 -141 95 -243 187 -365 23 -30 45 -59
49 -65 34 -48 152 -181 244 -275 61 -63 129 -133 150 -156 54 -57 367 -384
494 -515 93 -96 218 -226 500 -519 47 -48 137 -143 200 -211 63 -67 143 -152
178 -188 104 -108 196 -221 255 -311 75 -116 173 -328 177 -382 1 -4 7 -22 15
-41 14 -34 42 -167 53 -252 9 -70 8 -328 -2 -400 -14 -110 -77 -347 -97 -370
-5 -5 -9 -15 -9 -22 0 -21 -72 -163 -126 -249 -36 -58 -77 -119 -83 -124 -3
-3 -25 -28 -49 -57 -43 -53 -159 -169 -200 -200 -13 -10 -36 -27 -50 -39 -108
-85 -380 -234 -392 -214 -3 4 -5 580 -4 1279 l0 1270 -105 -55 c-57 -30 -109
-58 -115 -63 -6 -4 -36 -22 -66 -38 -141 -77 -319 -186 -498 -306 -75 -51
-141 -94 -147 -96 -5 -2 -15 -9 -22 -15 -29 -26 -43 -36 -70 -53 -51 -32 -292
-215 -329 -250 -7 -7 -17 -13 -22 -13 -6 0 -12 -3 -14 -7 -1 -5 -28 -28 -58
-53 -30 -25 -60 -49 -66 -55 -6 -5 -36 -30 -65 -55 -46 -38 -80 -68 -155 -135
-169 -151 -434 -411 -434 -426 0 -5 -7 -9 -15 -9 -8 0 -15 -3 -15 -7 0 -5 -25
-35 -56 -68 -102 -109 -180 -198 -291 -330 -95 -113 -100 -120 -143 -175 -19
-25 -37 -47 -40 -50 -29 -26 -440 -610 -440 -626 0 -3 -43 -70 -57 -89 -5 -5
-15 -23 -23 -40 -8 -16 -18 -32 -21 -35 -10 -9 -194 -335 -190 -339 1 -2 -1
-7 -6 -10 -5 -3 -24 -37 -43 -76 -19 -38 -38 -73 -43 -76 -5 -3 -9 -10 -9 -15
0 -5 -29 -67 -63 -139 -72 -150 -100 -211 -144 -315 -18 -41 -36 -84 -41 -95
-43 -93 -212 -555 -204 -555 2 0 -2 -13 -11 -30 -8 -16 -15 -38 -15 -50 0 -11
-4 -20 -8 -20 -5 0 -9 -6 -9 -13 0 -7 -16 -67 -37 -135 -20 -67 -39 -130 -41
-140 -2 -9 -20 -80 -40 -156 -20 -77 -39 -151 -41 -165 -3 -14 -10 -44 -16
-66 -6 -22 -11 -43 -10 -46 0 -3 -3 -22 -8 -42 -4 -20 -5 -36 -1 -34 51 24 87
44 93 52 4 6 8 7 8 3 0 -6 284 135 305 152 6 5 14 8 18 8 8 1 339 164 347 172
10 10 459 230 468 230 6 0 12 3 14 8 2 4 158 85 348 180 190 96 352 177 360
182 8 4 29 14 45 21 17 8 33 18 37 24 4 5 8 6 8 1 0 -5 6 -4 13 2 17 14 335
173 343 171 4 0 10 3 13 8 3 5 110 62 236 125 127 64 336 171 465 237 232 119
318 161 327 161 3 0 3 -9 0 -20 -3 -11 -1 -22 4 -25 4 -3 5 -16 0 -28 -5 -12
-5 -31 -1 -42 4 -11 5 -26 2 -34 -7 -19 -7 -80 1 -87 3 -3 1 -18 -4 -33 -6
-14 -10 -27 -9 -28 9 -15 17 -63 10 -63 -4 0 -4 -16 0 -35 4 -19 5 -35 1 -35
-8 0 -6 -68 2 -76 3 -3 2 -17 -3 -30 -5 -13 -6 -25 -2 -28 5 -3 5 -30 2 -61
-3 -31 -3 -58 2 -61 4 -3 3 -15 -2 -28 -5 -13 -6 -27 -3 -30 8 -7 10 -76 3
-76 -7 0 -3 -77 4 -88 2 -4 1 -14 -4 -21 -4 -8 -4 -27 0 -42 5 -16 6 -29 2
-29 -4 0 -7 -16 -7 -35 0 -19 2 -35 5 -35 3 0 5 -16 5 -35 0 -19 -2 -35 -5
-35 -3 0 -4 -19 -2 -43 3 -48 5 -100 2 -107 -5 -17 -4 -280 2 -280 4 0 3 -13
-2 -30 -5 -18 -5 -30 0 -30 6 0 6 -10 0 -25 -6 -15 -6 -26 1 -30 5 -4 7 -10 4
-15 -7 -12 -10 -124 -3 -135 3 -6 2 -19 -2 -30 -4 -11 -4 -30 1 -41 4 -12 5
-24 2 -28 -8 -8 -9 -276 -1 -276 4 0 3 -13 -2 -30 -5 -18 -5 -30 0 -30 6 0 6
-10 0 -25 -6 -15 -6 -26 1 -30 5 -4 7 -10 4 -15 -5 -8 -9 -116 -5 -135 1 -5 1
-14 0 -20 -5 -24 -3 -105 3 -111 3 -3 2 -16 -3 -29 -5 -13 -6 -26 -3 -29 8 -7
10 -76 3 -76 -7 0 -3 -77 4 -88 2 -4 1 -14 -4 -21 -4 -8 -4 -27 0 -42 5 -16 6
-29 2 -29 -4 0 -7 -16 -7 -35 0 -19 2 -35 5 -35 3 0 5 -16 5 -35 0 -19 -2 -35
-5 -35 -7 0 -3 -77 4 -88 2 -4 1 -14 -4 -21 -4 -8 -4 -27 0 -42 5 -16 5 -29 0
-29 -4 0 -4 -16 0 -35 4 -19 5 -35 1 -35 -8 0 -6 -68 2 -76 3 -3 2 -16 -3 -29
-5 -13 -6 -26 -3 -29 5 -5 8 -80 3 -88 -5 -10 -4 -278 2 -278 4 0 3 -13 -2
-30 -5 -18 -5 -30 0 -30 6 0 6 -10 0 -25 -6 -15 -6 -26 1 -30 5 -4 7 -10 4
-15 -8 -13 -10 -128 -3 -136 4 -3 2 -18 -3 -33 -6 -14 -10 -27 -9 -28 9 -15
17 -63 10 -63 -4 0 -4 -16 0 -35 4 -19 5 -35 1 -35 -8 0 -6 -68 2 -76 3 -3 2
-17 -3 -30 -5 -13 -6 -25 -2 -28 5 -3 5 -30 2 -61 -3 -31 -3 -58 2 -61 4 -3 3
-15 -2 -28 -5 -13 -6 -27 -3 -30 7 -7 10 -76 3 -76 -3 0 -4 -17 -2 -37 4 -55
2 -124 -3 -133 -3 -5 -1 -11 5 -15 6 -4 7 -13 1 -23 -6 -11 -5 -24 1 -36 13
-23 785 -796 796 -796 4 0 6 19 4 42 -1 24 -3 49 -2 56 0 6 0 19 0 27 0 8 0
22 0 30 0 8 0 22 0 30 0 8 0 22 0 30 0 8 0 22 0 30 0 8 0 22 0 30 0 8 0 22 0
30 0 8 0 22 0 30 0 8 0 22 0 30 0 8 0 22 0 30 0 8 0 22 0 30 0 8 0 22 0 30 0
8 0 22 0 30 0 8 0 22 0 30 0 8 0 22 0 30 0 8 0 22 0 30 0 8 0 22 0 30 0 8 0
21 0 28 -1 6 1 31 2 55 2 23 0 42 -4 42 -4 0 -3 14 2 30 5 17 5 30 0 30 -5 0
-5 13 0 30 5 17 5 30 0 30 -5 0 -5 13 0 30 5 17 5 30 0 30 -5 0 -5 13 0 30 5
17 5 30 0 30 -5 0 -5 13 0 30 5 17 5 30 0 30 -5 0 -5 13 0 30 5 17 5 30 0 30
-5 0 -5 13 0 30 5 17 5 30 0 30 -5 0 -5 13 0 30 5 17 5 30 0 30 -5 0 -5 13 0
30 5 17 5 30 0 30 -5 0 -5 13 0 30 5 17 5 30 0 30 -5 0 -5 13 0 30 5 17 5 30
0 30 -5 0 -5 13 0 30 5 17 5 30 0 30 -5 0 -5 13 0 30 5 17 5 30 0 30 -5 0 -5
13 0 30 5 17 5 30 0 30 -5 0 -5 13 0 30 5 17 5 30 0 30 -5 0 -5 13 0 30 5 17
5 30 0 30 -5 0 -5 13 0 30 5 17 5 30 0 30 -5 0 -5 13 0 30 5 17 5 30 0 30 -5
0 -5 13 0 30 5 17 5 30 0 30 -5 0 -5 13 0 30 5 17 5 30 0 30 -5 0 -5 13 0 30
5 17 5 30 0 30 -5 0 -5 13 0 30 5 17 5 30 0 30 -5 0 -5 13 0 30 5 17 5 30 0
30 -5 0 -5 13 0 30 5 17 5 30 0 30 -5 0 -5 13 0 30 5 17 5 30 0 30 -5 0 -5 13
0 30 5 17 5 30 0 30 -5 0 -5 13 0 30 5 17 5 30 0 30 -5 0 -5 13 0 30 5 17 5
30 0 30 -5 0 -5 13 0 30 5 17 5 30 0 30 -5 0 -5 13 0 30 5 17 5 30 0 30 -5 0
-5 13 0 30 5 17 5 30 0 30 -5 0 -5 13 0 30 5 17 5 30 0 30 -5 0 -5 13 0 30 5
17 5 30 0 30 -5 0 -5 13 0 30 5 17 5 30 0 30 -5 0 -5 13 0 30 5 17 5 30 0 30
-5 0 -5 13 0 30 5 17 5 30 0 30 -5 0 -5 13 0 30 5 17 6 30 2 30 -8 0 -7 68 1
76 3 3 2 17 -3 30 -6 14 -6 26 0 29 6 3 6 15 0 29 -5 13 -6 26 -4 29 8 8 10
167 2 167 -4 0 -3 14 2 30 5 17 5 30 0 30 -5 0 -5 13 0 30 5 17 5 30 0 30 -5
0 -5 13 0 30 5 17 5 30 0 30 -5 0 -5 13 0 30 5 17 5 30 0 30 -5 0 -5 13 0 30
5 17 5 30 0 30 -5 0 -5 13 0 30 5 17 5 30 0 30 -5 0 -5 13 0 30 5 17 5 30 0
30 -5 0 -5 13 0 30 5 17 5 30 0 30 -5 0 -5 13 0 30 5 17 5 30 0 30 -5 0 -5 13
0 30 5 17 5 30 0 30 -5 0 -5 13 0 30 5 17 5 30 0 30 -5 0 -5 13 0 30 5 17 5
30 0 30 -5 0 -5 13 0 30 5 17 5 30 0 30 -5 0 -5 13 0 30 5 17 5 30 0 30 -5 0
-5 13 0 30 5 17 5 30 0 30 -5 0 -5 13 0 30 5 17 5 30 0 30 -5 0 -5 13 0 30 5
17 5 30 0 30 -5 0 -5 13 0 30 5 17 5 30 0 30 -5 0 -5 13 0 30 5 17 5 30 0 30
-5 0 -5 13 0 30 5 17 5 30 0 30 -5 0 -5 13 0 30 5 17 5 30 0 30 -5 0 -5 13 0
30 5 17 5 30 0 30 -5 0 -5 13 0 30 5 17 5 30 0 30 -5 0 -5 13 0 30 5 17 5 30
0 30 -5 0 -5 13 0 30 5 17 5 30 0 30 -5 0 -5 13 0 30 5 17 5 30 0 30 -5 0 -5
13 0 30 5 17 5 30 0 30 -5 0 -5 13 0 30 5 17 5 30 0 30 -5 0 -5 13 0 30 5 17
5 30 0 30 -5 0 -5 13 0 30 5 17 5 30 0 30 -5 0 -5 13 0 30 5 17 5 30 0 30 -5
0 -5 13 0 30 5 17 5 30 0 30 -5 0 -5 13 0 30 5 17 5 30 0 30 -5 0 -5 13 0 30
5 17 5 30 0 30 -5 0 -5 13 0 30 5 17 5 30 0 30 -5 0 -5 13 0 30 5 17 5 30 0
30 -4 0 -5 15 -1 33 4 17 4 47 0 65 -3 17 -3 32 2 32 4 0 4 13 -1 29 -4 15 -4
34 0 42 5 7 5 20 0 29 -5 9 -5 22 0 30 5 8 5 21 0 30 -5 9 -5 22 0 30 5 8 5
21 0 30 -5 9 -5 22 0 30 5 8 5 21 0 30 -5 9 -5 22 0 30 5 8 5 21 0 30 -4 8 -4
22 0 31 5 8 5 21 0 29 -4 7 -4 24 0 36 5 13 6 26 1 28 -5 3 -6 17 -4 30 4 21
33 39 172 109 266 135 574 311 627 358 11 11 23 19 27 19 8 0 26 15 141 115
144 125 302 298 374 409 15 22 30 43 33 46 14 11 130 212 160 276 18 38 37 72
43 76 6 4 8 8 4 8 -7 0 9 42 57 155 12 27 54 164 59 190 1 6 5 19 9 30 6 21 7
25 31 140 60 297 53 661 -19 975 -8 36 -17 76 -20 89 -3 13 -10 31 -14 40 -5
9 -9 18 -9 21 0 13 -24 93 -39 127 -9 21 -17 40 -18 43 -5 35 -111 254 -174
359 -29 49 -104 162 -123 186 -4 6 -24 30 -43 55 -84 106 -109 133 -635 679
-93 97 -406 423 -465 485 -69 72 -376 393 -455 476 -36 37 -137 143 -225 235
-88 93 -170 177 -182 188 -13 12 -23 25 -23 31 0 5 -6 17 -13 25 -41 48 -65
187 -46 269 11 52 41 122 51 122 5 0 8 6 8 13 0 24 116 119 176 145 117 50
275 35 374 -37 37 -27 46 -36 295 -296 172 -179 189 -196 405 -425 74 -78 155
-164 180 -190 25 -26 106 -111 180 -190 74 -78 158 -166 185 -195 28 -29 113
-119 190 -200 77 -81 170 -178 206 -216 36 -37 123 -130 195 -205 71 -75 149
-158 174 -183 25 -26 99 -105 165 -175 245 -260 297 -309 320 -300 8 3 15 11
15 16 0 23 -24 94 -37 109 -7 8 -13 21 -13 27 0 6 -10 23 -23 39 -12 15 -33
48 -46 73 -13 25 -29 52 -36 60 -7 8 -25 39 -41 67 -16 29 -32 53 -36 53 -5 0
-8 9 -8 20 0 11 -3 20 -7 20 -8 0 -34 39 -60 90 -7 14 -21 39 -32 55 -87 140
-121 198 -121 205 0 5 -3 10 -7 12 -5 2 -53 77 -107 168 -54 91 -127 211 -162
267 -35 56 -64 106 -64 112 0 5 -3 11 -7 13 -11 4 -83 124 -83 136 0 6 -4 12
-8 14 -7 3 -126 194 -201 322 -13 23 -32 53 -42 68 -11 14 -19 31 -19 37 0 6
-4 11 -9 11 -5 0 -18 19 -30 43 -12 23 -35 62 -51 87 -30 46 -68 108 -85 141
-5 11 -13 19 -17 19 -5 0 -8 4 -8 9 0 6 -27 52 -60 103 -34 51 -66 105 -73
121 -6 15 -15 27 -19 27 -4 0 -8 7 -8 15 0 8 -4 15 -10 15 -5 0 -10 5 -10 11
0 9 -155 245 -170 259 -3 3 -18 22 -34 43 -102 137 -309 304 -476 384 -79 38
-114 53 -132 58 -5 2 -9 3 -10 5 -2 1 -10 3 -18 6 -8 2 -38 10 -67 18 -128 36
-284 49 -412 34z m-292 -5345 c-4 -18 -3 -33 1 -33 4 0 4 -18 0 -40 -4 -22 -4
-40 1 -40 5 0 4 -11 -1 -24 -5 -13 -6 -27 -2 -30 7 -8 5 -123 -3 -136 -3 -5
-1 -11 4 -15 6 -3 7 -15 2 -28 -5 -12 -5 -32 0 -44 4 -12 4 -25 0 -27 -5 -3
-6 -20 -2 -38 4 -18 4 -51 1 -73 -3 -22 -3 -53 0 -70 3 -16 3 -45 -1 -62 -4
-18 -3 -33 1 -33 5 0 5 -13 0 -30 -5 -18 -5 -30 0 -30 6 0 6 -10 0 -24 -5 -13
-6 -27 -2 -30 7 -8 5 -123 -3 -136 -3 -5 -1 -11 5 -15 6 -4 8 -11 4 -16 -8
-13 -9 -107 -1 -115 3 -3 2 -16 -3 -29 -5 -13 -6 -26 -3 -29 8 -7 10 -76 3
-76 -3 0 -4 -19 -2 -42 4 -51 4 -50 1 -111 -3 -72 -29 -103 -139 -160 -52 -27
-129 -66 -170 -88 -41 -21 -80 -39 -87 -39 -6 0 -13 -3 -15 -7 -1 -5 -45 -29
-96 -55 -51 -26 -141 -73 -200 -104 -225 -119 -303 -160 -507 -264 -115 -60
-223 -115 -240 -124 -16 -9 -35 -16 -42 -16 -6 0 -13 -3 -15 -8 -1 -4 -77 -45
-168 -91 -91 -46 -238 -121 -327 -167 -90 -46 -163 -79 -163 -73 0 13 117 245
142 282 11 15 16 27 11 27 -4 0 -3 4 2 8 6 4 21 29 35 55 14 27 30 56 35 65 6
10 34 58 63 107 84 143 90 151 201 320 92 140 236 347 266 382 5 6 21 26 35
44 38 50 223 282 235 295 5 6 35 40 65 75 122 141 308 337 424 448 32 31 84
81 116 111 65 62 174 159 215 192 15 12 37 31 49 42 11 12 55 48 96 81 41 33
84 68 95 78 11 10 32 26 48 35 15 9 28 21 28 27 1 5 5 -8 8 -30 4 -22 3 -55 0
-72z"/>
</g>
</svg>
