<svg id="Layer_1" data-name="Layer 1" xmlns="http://www.w3.org/2000/svg"
     viewBox="0 0 96 45">
    <defs>
        <style>
            .cls-1{isolation:isolate;}.cls-2{fill:#0b275b;}.cls-3{fill:url(#linear-gradient);}.cls-4,.cls-5{fill:none;}.cls-5{stroke:#05122B;stroke-miterlimit:10;stroke-width:0.2px;}
        </style>
        <linearGradient id="linear-gradient" x1="14.08" y1="776.63" x2="15.08" y2="776.63"
                        gradientTransform="matrix(31.37, 0, 0, -31.29, 272.25, 24157.4)" gradientUnits="userSpaceOnUse">
            <stop offset="0" stop-color="#05122B"/>
            <stop offset="1" stop-color="#0b275b"/>
            <stop offset="1" stop-color="#0d3172"/>
            <stop offset="1" stop-color="#0d3172"/>
            <stop offset="1" stop-color="#05122B"/>
            <stop offset="1" stop-color="#05122B"/>
            <stop offset="1" stop-color="#05122B"/>
        </linearGradient>
    </defs>
    <g id="Verified_icon" data-name="Verified icon">
        <g id="Verified" class="cls-1">
            <g class="cls-1">
                <path class="cls-2" d="M756.35-143.28h-1.87L751.59-151h1.64l2.2,6.13,2.21-6.13h1.6Z"
                      transform="translate(-707.48 169.28)"/>
                <path class="cls-2"
                      d="M764.3-145.95c0,.16,0,.36,0,.48H760.5a1.28,1.28,0,0,0,1.37,1.1,2.14,2.14,0,0,0,1.35-.51l.84.93a3.27,3.27,0,0,1-2.27.8,2.64,2.64,0,0,1-2.77-2.78,2.63,2.63,0,0,1,2.7-2.82A2.57,2.57,0,0,1,764.3-145.95Zm-3.79-.5h2.35a1.14,1.14,0,0,0-1.16-1.06A1.15,1.15,0,0,0,760.51-146.45Z"
                      transform="translate(-707.48 169.28)"/>
                <path class="cls-2"
                      d="M769.12-148.63l-.22,1.42a2.16,2.16,0,0,0-.86-.17,1.07,1.07,0,0,0-1.13,1.2v2.9h-1.43v-5.33h1.39v.59a1.69,1.69,0,0,1,1.5-.73A2,2,0,0,1,769.12-148.63Z"
                      transform="translate(-707.48 169.28)"/>
                <path class="cls-2"
                      d="M771.73-150.35a.9.9,0,0,1-.92.91.89.89,0,0,1-.91-.91.9.9,0,0,1,.91-.92A.91.91,0,0,1,771.73-150.35Zm-.2,7.07H770.1v-5.33h1.43Z"
                      transform="translate(-707.48 169.28)"/>
                <path class="cls-2"
                      d="M776.6-147.33h-1.66v4.05h-1.43v-4.05h-1v-1.28h1v-.66a1.83,1.83,0,0,1,1.91-2.06,2.79,2.79,0,0,1,1.63.48l-.57,1.11a1.93,1.93,0,0,0-.91-.26c-.41,0-.63.26-.63.75v.64h1.66Z"
                      transform="translate(-707.48 169.28)"/>
                <path class="cls-2"
                      d="M779.34-150.35a.9.9,0,0,1-.92.91.89.89,0,0,1-.91-.91.91.91,0,0,1,.91-.92A.91.91,0,0,1,779.34-150.35Zm-.19,7.07h-1.44v-5.33h1.44Z"
                      transform="translate(-707.48 169.28)"/>
                <path class="cls-2"
                      d="M785.6-145.95c0,.16,0,.36,0,.48H781.8a1.29,1.29,0,0,0,1.37,1.1,2.14,2.14,0,0,0,1.35-.51l.84.93a3.27,3.27,0,0,1-2.27.8,2.63,2.63,0,0,1-2.76-2.78,2.62,2.62,0,0,1,2.69-2.82A2.57,2.57,0,0,1,785.6-145.95Zm-3.79-.5h2.36a1.16,1.16,0,0,0-1.16-1.06A1.16,1.16,0,0,0,781.81-146.45Z"
                      transform="translate(-707.48 169.28)"/>
                <path class="cls-2"
                      d="M790.6-148v-3.14H792v7.91h-1.4v-.59a1.93,1.93,0,0,1-1.59.72,2.64,2.64,0,0,1-2.58-2.8,2.64,2.64,0,0,1,2.58-2.8A2,2,0,0,1,790.6-148Zm-2.68,2.1a1.37,1.37,0,0,0,1.37,1.47,1.38,1.38,0,0,0,1.38-1.47,1.37,1.37,0,0,0-1.38-1.46A1.36,1.36,0,0,0,787.92-145.95Z"
                      transform="translate(-707.48 169.28)"/>
            </g>
        </g>
        <path id="Path_73-2" data-name="Path 73-2" class="cls-3"
              d="M745.47-150l-.82,1.24c-.34.5-.67,1-1,1.51a.46.46,0,0,0,0,.6l1.5,2.21c.11.17.21.35.34.55l-.89.62c-.65.44-1.3.88-2,1.31a.45.45,0,0,0-.23.54c.2,1,.37,2,.58,3,.07.33,0,.46-.33.52-.92.16-1.83.36-2.75.53a.56.56,0,0,0-.55.52c-.15.93-.36,1.85-.53,2.77-.06.34-.2.41-.52.34-.94-.2-1.88-.36-2.81-.56a.63.63,0,0,0-.78.31c-.52.83-1.09,1.63-1.63,2.45-.16.25-.3.28-.56.1-.8-.56-1.63-1.1-2.43-1.66a.47.47,0,0,0-.59,0c-.79.55-1.59,1.07-2.37,1.62-.3.21-.46.21-.67-.12-.52-.84-1.1-1.63-1.63-2.46a.54.54,0,0,0-.65-.26c-1,.2-1.92.37-2.89.58-.31.06-.47,0-.53-.34-.15-.89-.35-1.78-.5-2.67a.63.63,0,0,0-.62-.64c-.89-.14-1.77-.36-2.66-.51-.34-.06-.46-.17-.38-.54.22-1,.38-2,.59-3A.46.46,0,0,0,717-142c-.84-.56-1.67-1.13-2.51-1.68-.29-.19-.32-.34-.13-.61.55-.79,1.07-1.59,1.62-2.37a.49.49,0,0,0,0-.66c-.53-.73-1-1.5-1.53-2.24-.1-.15-.19-.3-.3-.49.3-.21.58-.41.87-.6.63-.43,1.26-.86,1.9-1.27a.57.57,0,0,0,.3-.7c-.21-1-.38-2-.58-2.93-.07-.31,0-.4.32-.45.92-.17,1.83-.38,2.74-.53a.61.61,0,0,0,.6-.61c.15-.92.36-1.83.52-2.75.05-.29.17-.35.45-.3,1,.21,2,.39,3,.6a.47.47,0,0,0,.58-.24c.53-.81,1.08-1.61,1.62-2.41.09-.14.2-.27.32-.43l1.89,1.26c.29.2.58.39.86.6a.41.41,0,0,0,.58,0c.81-.56,1.64-1.09,2.44-1.65.25-.18.39-.15.56.11.55.84,1.13,1.66,1.68,2.51a.5.5,0,0,0,.61.26c.95-.2,1.9-.37,2.85-.56.51-.1.51-.1.61.43.17.88.37,1.75.5,2.63a.61.61,0,0,0,.6.57c.9.16,1.8.36,2.7.52.36.06.4.2.34.52-.21,1-.38,2-.58,2.93a.49.49,0,0,0,.25.6c.82.54,1.63,1.1,2.45,1.65A3.48,3.48,0,0,1,745.47-150Zm-22.08,3.62a1.88,1.88,0,0,0,.16.23l4.84,4.86c.16.17.28.11.42,0,.31-.32.64-.64,1-1l5.67-5.67c.67-.67,1.34-1.34,2-2,.08-.09.14-.32.09-.37-.49-.55-1-1.06-1.54-1.6a3.46,3.46,0,0,0-.31.26l-6.76,6.78c-.25.25-.4.27-.65,0-1-1-1.93-1.94-2.9-2.91-.14-.13-.25-.26-.45-.06-.49.49-1,1-1.52,1.47Z"
              transform="translate(-707.48 169.28)"/>
        <g id="Union_9-2" data-name="Union 9-2">
            <path class="cls-4"
                  d="M707.48-146.78c0-12.43,9.63-22.5,21.5-22.5a21.31,21.31,0,0,1,18.45,10.94h50.05a6,6,0,0,1,6,6h0v11.07a6,6,0,0,1-6,6h-50a21.36,21.36,0,0,1-18.48,11C717.11-124.28,707.48-134.36,707.48-146.78Z"
                  transform="translate(-707.48 169.28)"/>
            <path class="cls-5"
                  d="M729-169a20.19,20.19,0,0,0-8.25,1.74,21.34,21.34,0,0,0-6.74,4.75,22.26,22.26,0,0,0-4.54,7.06,22.92,22.92,0,0,0-1.67,8.65,22.91,22.91,0,0,0,1.67,8.64,22.15,22.15,0,0,0,4.54,7.06,21,21,0,0,0,6.74,4.75,20.2,20.2,0,0,0,8.25,1.75,20.49,20.49,0,0,0,10.62-3,21.73,21.73,0,0,0,7.59-7.85l.09-.15h50.2a5.71,5.71,0,0,0,5.7-5.7v-11.07a5.7,5.7,0,0,0-5.7-5.69H747.26l-.09-.16a21.81,21.81,0,0,0-7.59-7.82,20.4,20.4,0,0,0-10.6-3"
                  transform="translate(-707.48 169.28)"/>
        </g>
    </g>
</svg>